<svg width="55" height="38" viewBox="0 0 55 38" fill="none" xmlns="http://www.w3.org/2000/svg">
<g clip-path="url(#clip0_6_71)">
<mask id="mask0_6_71" style="mask-type:luminance" maskUnits="userSpaceOnUse" x="0" y="0" width="55" height="38">
<path d="M0 0H55V38H0V0Z" fill="white"/>
</mask>
<g mask="url(#mask0_6_71)">
<path fill-rule="evenodd" clip-rule="evenodd" d="M38.2739 14.5655L41.5456 14.7142L45.5364 13.4565L48.7082 14.1954L48.3106 15.1062L48.7084 14.1956L49.1238 14.2923L48.3106 15.1062L43.7285 19.6911L40.4346 20.726C40.0769 20.7182 39.7207 20.6796 39.3727 20.5991C39.7207 20.6798 40.077 20.7184 40.4348 20.7261C41.0361 20.7395 41.6429 20.6638 42.2247 20.5374C43.0317 20.3606 43.8684 20.0947 44.628 19.7043L44.6285 19.704L44.9148 19.4169L47.3239 17.0021C47.0691 17.4245 46.7946 17.8335 46.4911 18.2206C46.7946 17.8338 47.0691 17.4245 47.3239 17.0021L50.2304 14.089L48.9338 13.6527L49.08 13.293L48.9334 13.6527L47.6888 13.2341L44.2492 3.83009L42.9421 3.37053L38.6978 5.03989L37.1228 4.96373L36.5139 3.20968L38.4686 0.0299377L44.5634 1.11007L54.9677 12.3647L54.3123 14.0032L54.2196 14.2354L54.1036 14.3204L50.3839 17.0422L53.1491 16.0011L49.4792 20.2731L47.79 20.9375C49.3366 20.0155 50.678 18.7816 51.8086 17.3961L51.8147 17.3882L51.8084 17.3961C50.678 18.7816 49.3366 20.0151 47.7898 20.9374L44.2646 22.3238L47.79 20.9374C47.537 21.0881 47.28 21.2327 47.0162 21.3661C44.4991 22.6362 41.6161 22.963 38.8516 22.4366C38.5373 22.377 38.2277 22.2967 37.9186 22.2164L37.7059 22.1614L38.5804 21.322L37.6758 22.19L37.7057 22.1965L36.133 25.5565L34.7083 25.2464L34.0694 24.7751L32.9028 25.234L32.5305 30.97L30.0443 31.7827L29.4603 37.0291L27.4849 37.8604L25.5093 37.0291L24.9251 31.7827L22.4389 30.97L22.0654 25.2139L20.7809 24.7085L20.3112 25.055L18.8867 25.3649L17.447 22.2894L17.3137 22.1614L17.099 22.2168L17.0989 22.217C16.7904 22.297 16.4816 22.3772 16.1683 22.4366C13.4036 22.963 10.5208 22.6362 8.00368 21.3661C7.74066 21.2321 7.48252 21.0891 7.22974 20.9374C6.30436 20.3857 5.45256 19.7225 4.67547 18.9822C5.45256 19.7226 6.30436 20.3858 7.22974 20.9375L5.5405 20.2731L1.87063 16.0011L4.63529 17.0422L0.915931 14.3203L0.707908 14.0045L0.915931 14.3206L0.799943 14.2356L0.0518482 12.3647L10.4561 1.11007L16.5509 0.0299377L18.5057 3.20968L17.8964 4.96373L16.3218 5.03989L12.0775 3.37053L10.7702 3.83009L7.33076 13.2341L6.08593 13.6527L5.93165 13.2741C5.74569 12.8127 5.58179 12.3342 5.41726 11.8541C5.14794 11.0684 4.87719 10.2785 4.50653 9.55196C4.87719 10.2788 5.14809 11.069 5.41742 11.8549C5.58179 12.3346 5.746 12.8128 5.93165 13.2741L6.08593 13.6527L4.7891 14.089L7.69559 17.0023C7.94979 17.4235 8.22352 17.8316 8.5261 18.2175C8.22368 17.8315 7.94979 17.4235 7.69559 17.0023L10.3912 19.704C11.151 20.0944 11.9878 20.3606 12.795 20.5374C13.3767 20.6638 13.9832 20.7395 14.5846 20.7261L11.2909 19.6911L6.70874 15.1062L5.89556 14.2923L6.31097 14.1956L9.48285 13.4565L13.4737 14.7142L16.5654 14.5739L16.7967 15.0254C17.8854 17.0319 19.4561 18.9237 21.4385 20.1377L21.4388 20.1375C19.4563 18.9235 17.8854 17.0319 16.7967 15.0254L16.5654 14.5739L16.7454 14.5658L20.4455 16.0211L21.7597 19.6587L21.9667 19.9212L23.3187 19.3668V21.0301C23.5559 21.1127 23.7967 21.1845 24.0405 21.2453V19.2725L25.8502 18.4655L25.046 21.3638C25.2043 21.3073 25.3774 21.2882 25.5397 21.3411C25.6569 21.3791 25.726 21.423 25.764 21.4731L26.8209 18.01L27.4817 17.6235H27.4879L28.1487 18.01L29.2245 21.535C29.2468 21.4582 29.3167 21.394 29.4798 21.3411C29.6236 21.2943 29.7756 21.3039 29.9186 21.3459L29.1194 18.4655L30.9291 19.2725V21.2575L30.9715 21.2473C31.2022 21.1902 31.4286 21.123 31.651 21.0472V19.3668L33.0405 19.9367L33.2599 19.6587L34.574 16.0211L38.2739 14.5658V14.5655ZM22.6754 23.6579C22.6783 23.549 22.6813 23.4414 22.6354 23.3407C22.6811 23.4412 22.6781 23.5488 22.6753 23.6577C22.672 23.7754 22.6688 23.8947 22.7271 24.0081C22.669 23.8947 22.6721 23.7756 22.6754 23.6579ZM28.3397 22.0831L27.4847 30.167L26.6299 22.0834L27.4849 21.1832L28.3397 22.0831ZM49.6023 11.8537L49.5714 11.9436L50.8008 12.9841C50.9283 11.4627 50.7792 10.1603 50.5456 9.48853L50.5455 9.48884L50.5453 9.48853C50.2065 10.1392 49.9507 10.843 49.7066 11.5503L49.6023 11.8537Z" fill="white"/>
<path d="M25.4886 4.06491L12.6711 12.9574L24.8583 5.61593L24.1229 7.47716L23.0723 8.76962L23.7026 9.95879L20.5508 12.2337L24.8583 11.5098L23.2823 13.4745H25.0685L34.2089 8.76978L32.843 10.5794L34.419 10.993L32.1075 12.3373L34.629 11.9236L33.3683 13.4746H42.2986L33.9987 7.89097L32.1075 8.51138L25.4886 4.06491Z" fill="white"/>
</g>
</g>
<defs>
<clipPath id="clip0_6_71">
<rect width="55" height="38" fill="white"/>
</clipPath>
</defs>
</svg>
