<?xml version="1.0" standalone="no"?>
<!DOCTYPE svg PUBLIC "-//W3C//DTD SVG 20010904//EN"
 "http://www.w3.org/TR/2001/REC-SVG-20010904/DTD/svg10.dtd">
<svg version="1.0" xmlns="http://www.w3.org/2000/svg"
 width="552.000000pt" height="552.000000pt" viewBox="0 0 552.000000 552.000000"
 preserveAspectRatio="xMidYMid meet">
<metadata>
Created by potrace 1.14, written by Peter Selinger 2001-2017
</metadata>
<g transform="translate(0.000000,552.000000) scale(0.100000,-0.100000)"
fill="#000000" stroke="none">
<path d="M1535 4995 c-33 -8 -78 -16 -100 -19 -22 -3 -121 -21 -220 -40 l-179
-35 -66 -68 c-36 -38 -117 -127 -180 -198 -63 -71 -131 -145 -150 -165 -37
-37 -86 -91 -190 -211 -36 -40 -99 -110 -141 -154 -42 -44 -109 -118 -150
-165 -41 -47 -79 -89 -84 -95 -6 -5 -21 -22 -33 -36 l-23 -27 36 -88 c20 -49
44 -96 54 -104 37 -32 90 -73 209 -161 68 -50 122 -93 120 -95 -3 -2 -43 12
-91 31 -48 18 -87 31 -87 28 0 -3 -12 2 -26 12 -44 29 -37 10 23 -57 73 -81
90 -101 186 -218 113 -138 109 -134 189 -164 40 -16 112 -48 159 -72 192 -98
363 -135 594 -130 99 3 166 10 228 25 49 12 92 19 96 17 4 -3 39 -74 80 -159
l72 -154 68 16 c37 9 78 23 92 33 24 15 29 15 83 -7 32 -13 60 -25 62 -28 5
-5 13 -102 29 -367 9 -134 14 -203 17 -206 2 -1 55 -20 118 -42 130 -45 124
-36 135 -175 4 -45 8 -84 10 -87 1 -3 6 -41 9 -85 7 -81 9 -97 21 -171 6 -39
10 -43 63 -67 31 -14 73 -33 93 -42 35 -17 35 -17 137 26 102 43 102 43 103
79 0 19 2 44 4 55 3 11 7 47 10 80 3 33 8 71 10 85 3 14 7 69 11 124 3 54 9
108 14 120 6 16 35 30 124 59 65 22 119 44 121 50 2 7 6 55 9 107 7 132 18
299 21 335 2 17 4 51 4 76 1 45 1 45 55 68 l54 22 39 -24 c21 -14 68 -32 104
-40 l67 -14 28 61 c16 33 49 108 74 166 51 115 45 110 130 91 140 -33 399 -36
524 -7 134 31 264 80 366 139 14 8 59 27 100 42 83 31 82 30 225 205 52 63
111 133 131 155 77 86 84 95 71 95 -7 0 -17 -4 -22 -9 -6 -5 -39 -18 -74 -30
-35 -12 -76 -28 -92 -36 -68 -35 -42 -4 55 67 39 29 76 57 83 63 6 5 47 36 91
68 l80 58 32 90 c35 99 36 95 -25 164 -72 81 -174 193 -210 229 -23 23 -70 75
-105 116 -36 41 -84 95 -107 120 -23 25 -54 59 -69 75 -14 17 -59 64 -98 106
-39 41 -90 97 -113 125 -55 65 -90 103 -181 198 -78 81 -89 87 -190 102 -51 7
-166 28 -352 64 -58 11 -110 20 -116 20 -11 0 -119 -167 -175 -271 l-25 -45
22 -65 c13 -35 23 -72 24 -82 0 -25 32 -34 114 -33 65 2 89 9 269 83 l197 82
62 -22 62 -22 28 -75 c16 -41 53 -145 84 -230 31 -85 84 -231 119 -325 53
-143 79 -217 100 -291 2 -7 39 -24 82 -38 43 -14 100 -34 127 -45 l49 -18
-269 -273 c-239 -242 -321 -317 -358 -325 -6 -1 -18 -5 -26 -8 -73 -28 -159
-47 -234 -52 -58 -5 -54 -2 93 46 l153 50 264 267 c145 147 264 270 264 273 0
3 -78 24 -172 47 l-173 42 -197 -64 c-180 -59 -202 -63 -266 -60 -247 14 -248
14 -335 -23 -45 -18 -91 -37 -102 -42 -11 -5 -54 -23 -95 -39 l-75 -31 -26
-63 c-14 -35 -43 -115 -64 -178 -54 -161 -47 -154 -128 -120 -59 26 -67 27
-68 12 -1 -9 -2 -46 -3 -81 -1 -62 -2 -65 -31 -77 -16 -7 -32 -11 -35 -9 -3 2
-5 46 -4 97 l1 95 -81 38 c-45 22 -84 40 -88 42 -7 4 -4 -13 32 -142 39 -141
40 -147 27 -142 -7 2 -22 0 -34 -4 -24 -9 -21 -18 -104 262 -20 66 -28 79 -56
94 -30 16 -35 17 -66 1 -26 -12 -37 -25 -45 -53 -74 -277 -87 -317 -104 -306
-7 4 -21 8 -30 8 -22 0 -23 4 -4 68 21 73 46 168 52 195 4 19 2 22 -13 14 -10
-5 -50 -24 -90 -42 l-71 -33 0 -76 c0 -114 1 -111 -26 -111 -34 0 -44 18 -44
80 0 30 0 65 -1 77 l-1 22 -55 -25 c-70 -31 -80 -30 -94 4 -25 62 -113 309
-118 329 -4 17 -40 36 -187 96 l-182 74 -90 -3 c-49 -3 -120 -6 -159 -8 -57
-3 -87 2 -160 26 -49 16 -139 44 -198 63 l-109 35 -171 -41 c-95 -23 -173 -43
-175 -44 -1 -1 116 -123 262 -271 l265 -269 150 -50 c83 -27 151 -52 151 -56
0 -4 -44 1 -97 11 -101 18 -202 49 -263 81 -31 16 -521 507 -556 557 -12 18
-9 21 45 41 32 11 61 21 64 21 4 0 32 9 63 21 66 25 55 3 166 323 68 195 185
520 219 607 8 19 24 30 73 46 l64 20 206 -83 c206 -84 207 -84 282 -80 42 2
77 6 78 8 1 1 16 42 32 89 l30 86 -93 149 c-51 82 -93 152 -93 157 0 10 -34 7
-105 -8z m1240 -2252 c-4 -43 -9 -91 -11 -108 -1 -16 -5 -52 -8 -80 -12 -100
-15 -131 -22 -200 -3 -38 -7 -77 -9 -85 -5 -27 -19 -185 -17 -192 1 -5 -3 -8
-8 -8 -6 0 -10 15 -11 33 0 33 -2 46 -19 197 -5 47 -12 112 -15 145 -3 33 -8
74 -10 91 -3 17 -9 85 -16 150 -6 65 -13 121 -15 123 -2 3 16 26 42 52 l46 47
40 -44 40 -44 -7 -77z"/>
<path d="M2429 4557 c-41 -29 -102 -72 -136 -94 -34 -23 -68 -47 -75 -53 -18
-16 -373 -266 -541 -382 -27 -18 -86 -60 -131 -93 -46 -33 -93 -67 -105 -75
-59 -39 -141 -101 -141 -105 0 -3 27 12 59 35 33 22 63 40 66 40 3 0 18 9 33
19 39 27 308 193 368 227 28 16 61 36 75 45 13 9 67 42 119 74 52 32 148 91
212 132 65 40 120 73 123 73 3 0 15 9 26 19 12 11 29 21 39 24 16 4 17 1 10
-17 -5 -11 -21 -52 -36 -91 -15 -38 -39 -84 -53 -101 -46 -54 -71 -88 -71 -96
0 -8 37 -77 51 -94 10 -13 -33 -52 -161 -144 -41 -30 -81 -60 -87 -66 -7 -7
-18 -14 -25 -17 -7 -2 -10 -8 -6 -12 4 -4 42 0 85 8 43 8 94 18 113 21 19 3
45 8 56 10 12 2 39 7 60 10 22 4 47 9 57 12 30 9 19 -13 -53 -100 -39 -47 -64
-87 -58 -87 7 -1 47 -2 88 -3 71 -1 80 2 165 45 163 83 350 182 360 189 17 13
423 220 431 220 4 0 -5 -15 -22 -32 -16 -18 -45 -55 -63 -82 -38 -55 -37 -56
45 -76 30 -7 54 -17 54 -21 0 -4 -21 -20 -47 -35 -27 -15 -50 -30 -53 -33 -3
-3 -26 -17 -52 -31 -26 -13 -46 -26 -44 -27 5 -5 174 22 203 32 28 9 18 -12
-32 -73 -30 -36 -52 -68 -50 -71 5 -9 842 -7 851 2 4 4 -7 13 -24 19 -18 7
-32 16 -32 20 0 4 -5 8 -11 8 -6 0 -36 19 -67 43 -31 24 -122 88 -202 142 -80
54 -161 111 -181 127 -20 15 -40 28 -43 28 -4 0 -59 36 -123 80 -118 81 -125
83 -178 60 -11 -5 -43 -16 -72 -25 l-52 -16 -108 75 c-59 41 -187 128 -283
192 -96 65 -177 120 -180 123 -7 8 -68 51 -73 51 -2 0 -37 -24 -78 -53z"/>
<path d="M1003 1809 c-11 -41 -41 -143 -65 -226 -24 -84 -42 -154 -39 -154 38
-8 57 -1 69 24 10 21 20 27 44 27 18 0 36 7 43 17 12 16 14 13 24 -25 7 -23
15 -42 19 -43 57 -8 62 -6 56 20 -3 14 -10 37 -15 51 -4 14 -26 88 -48 165
-22 77 -46 157 -53 179 l-14 38 -21 -73z m37 -200 c6 -22 14 -47 17 -55 4 -10
-3 -14 -27 -14 -30 0 -32 2 -26 28 4 15 10 39 13 55 3 15 7 27 9 27 2 0 8 -18
14 -41z"/>
<path d="M486 1853 c-19 -62 -108 -371 -111 -386 -2 -9 -7 -22 -10 -27 -7 -11
-4 -12 38 -15 24 -2 29 3 34 26 5 25 10 29 39 29 21 0 37 6 43 18 8 15 11 13
20 -13 6 -16 15 -37 20 -45 11 -20 67 -19 62 1 -2 8 -28 100 -58 204 -30 105
-55 198 -56 208 -1 9 -4 17 -8 17 -4 0 -10 -8 -13 -17z m29 -270 c6 -41 6 -43
-19 -43 -29 0 -31 7 -14 62 13 45 23 40 33 -19z"/>
<path d="M3241 1662 c-29 -114 -54 -214 -55 -222 -1 -10 7 -15 24 -14 38 2 38
2 42 27 2 17 11 23 36 25 20 2 32 9 32 18 0 8 5 14 10 14 6 0 10 -7 10 -15 0
-9 7 -29 15 -45 11 -22 21 -29 38 -26 12 1 22 9 22 17 0 8 -14 68 -32 134 -18
66 -43 156 -55 200 -11 44 -24 83 -27 87 -4 4 -31 -86 -60 -200z m71 -59 c3
-16 7 -35 9 -43 3 -10 -5 -16 -25 -18 -22 -3 -27 0 -23 11 3 9 9 32 13 51 7
40 19 40 26 -1z"/>
<path d="M632 1813 c30 -115 125 -423 130 -423 3 0 13 24 22 53 40 135 75 258
81 290 4 19 8 33 20 75 6 19 3 22 -23 22 -34 0 -38 -7 -73 -132 -12 -43 -25
-78 -29 -78 -4 0 -13 21 -19 48 -6 26 -19 73 -28 105 -16 55 -18 57 -51 57
-28 0 -33 -3 -30 -17z"/>
<path d="M1204 1633 l1 -198 24 3 c14 1 27 4 29 7 3 2 4 32 3 67 l-1 62 25
-34 c14 -19 25 -40 25 -47 0 -7 4 -13 8 -13 4 0 15 -13 25 -29 12 -21 23 -28
46 -27 37 2 46 10 26 26 -8 7 -15 16 -15 20 0 5 -16 32 -35 61 -39 59 -42 69
-21 69 8 0 28 16 45 35 34 40 39 87 14 142 -18 39 -55 53 -138 53 l-62 0 1
-197z m147 106 c13 -50 -26 -94 -73 -81 -14 3 -17 15 -17 58 1 46 4 53 23 56
34 6 60 -7 67 -33z"/>
<path d="M1500 1629 l0 -200 23 7 c12 4 25 12 29 18 4 6 7 93 7 193 l-1 183
-29 0 -29 0 0 -201z"/>
<path d="M1637 1823 c-7 -12 -3 -381 4 -387 3 -4 17 -2 31 3 21 8 25 16 25 53
1 85 2 85 44 16 41 -69 62 -89 92 -84 22 3 34 16 21 24 -5 4 -32 46 -60 93
l-51 86 58 98 c33 54 59 99 59 101 0 2 -15 4 -34 4 -30 0 -38 -6 -68 -52 -18
-29 -36 -61 -40 -70 -15 -36 -23 -16 -21 52 l1 70 -28 0 c-16 0 -31 -3 -33 -7z"/>
<path d="M1963 1815 c-49 -21 -54 -41 -52 -194 1 -130 2 -141 23 -160 50 -47
136 -45 174 4 17 22 20 41 19 157 0 150 -8 180 -58 197 -41 14 -67 13 -106 -4z
m96 -64 c4 -9 7 -66 6 -128 -2 -116 -10 -143 -46 -143 -39 0 -46 23 -47 150 0
120 0 121 26 134 29 15 49 11 61 -13z"/>
<path d="M3459 1828 c0 -2 -2 -13 -5 -25 -4 -23 -1 -25 46 -27 l25 -1 3 -172
c1 -95 4 -173 7 -173 2 0 16 5 30 12 l25 11 0 159 c0 119 3 158 13 159 6 1 17
2 22 4 6 1 16 3 22 3 7 1 12 13 11 27 -2 25 -3 25 -100 25 -54 0 -98 -1 -99
-2z"/>
<path d="M3709 1828 c-1 -2 -2 -92 -3 -200 -1 -131 2 -198 9 -198 5 1 19 6 30
13 18 10 21 22 20 72 -1 33 0 65 2 70 4 11 68 13 79 2 3 -3 6 -40 6 -81 0 -42
3 -77 6 -77 49 -10 52 -7 53 40 0 42 0 337 -1 353 0 3 -14 1 -30 -5 -17 -7
-30 -18 -29 -27 1 -8 1 -43 0 -77 l-1 -61 -32 3 c-18 2 -37 4 -43 4 -6 1 -10
36 -10 86 l1 85 -28 0 c-15 0 -29 -1 -29 -2z"/>
<path d="M3963 1631 c0 -138 3 -201 11 -204 6 -2 45 -3 86 -2 74 1 75 1 78 28
3 27 3 27 -57 27 l-61 0 0 175 0 175 -28 0 -28 0 -1 -199z"/>
<path d="M4185 1630 c0 -126 4 -200 10 -201 69 -8 131 -3 142 10 24 31 15 41
-40 41 l-53 0 0 53 c1 28 5 55 10 58 4 4 23 5 41 3 26 -2 34 2 44 22 17 37 14
41 -27 39 -60 -3 -67 4 -67 63 -1 54 1 56 50 54 45 -3 65 8 65 33 0 25 -1 25
-88 25 l-87 0 0 -200z"/>
<path d="M4410 1800 c0 -27 3 -29 30 -26 21 2 33 -2 38 -13 5 -9 8 -85 7 -169
-1 -84 2 -155 7 -158 5 -3 15 0 23 6 8 7 15 9 15 4 0 -5 4 -4 8 3 4 6 7 81 7
167 0 167 -3 158 51 159 16 1 21 8 22 29 l1 28 -105 0 -104 0 0 -30z"/>
<path d="M4660 1630 c0 -110 2 -200 5 -200 2 0 16 5 30 12 l25 11 0 189 0 188
-30 0 -30 0 0 -200z"/>
<path d="M4824 1820 c-47 -19 -54 -45 -54 -196 0 -138 1 -142 25 -167 31 -30
79 -39 120 -22 37 15 51 31 60 72 6 28 3 33 -24 48 -29 14 -31 14 -32 -2 -1
-10 -2 -22 -4 -28 -1 -5 -3 -15 -3 -22 -3 -18 -39 -26 -62 -13 -18 10 -20 20
-20 134 0 104 3 125 18 138 19 18 61 8 64 -14 0 -7 2 -17 3 -23 2 -5 3 -16 4
-22 1 -18 15 -16 41 5 21 17 22 22 11 53 -18 57 -86 84 -147 59z"/>
<path d="M5073 1820 c-36 -15 -56 -55 -50 -100 4 -33 18 -53 74 -110 37 -39
68 -74 67 -80 -1 -5 -2 -16 -2 -24 -3 -20 -37 -29 -62 -16 -14 8 -20 21 -20
46 l0 35 -30 -16 c-34 -18 -38 -43 -13 -86 39 -66 161 -51 186 25 15 44 0 74
-73 151 -78 82 -86 108 -40 124 27 9 32 7 46 -15 9 -13 14 -33 11 -44 -6 -24
10 -26 41 -4 22 15 24 34 7 77 -15 38 -90 58 -142 37z"/>
<path d="M2018 1078 c-29 -29 -21 -57 32 -110 53 -53 58 -71 21 -76 -16 -3
-24 2 -28 17 -6 24 -31 28 -39 7 -10 -26 15 -55 52 -62 28 -5 40 -2 60 17 35
33 30 55 -26 111 -45 45 -62 77 -42 79 4 0 15 2 25 4 13 2 19 -5 24 -26 5 -24
8 -27 24 -18 25 13 24 31 -4 57 -28 26 -73 26 -99 0z"/>
<path d="M2170 975 c0 -123 0 -125 20 -115 18 10 20 21 20 125 0 108 -1 115
-20 115 -19 0 -20 -7 -20 -125z"/>
<path d="M2240 975 c0 -106 2 -124 15 -119 15 6 18 22 17 82 -2 48 11 39 34
-25 20 -56 47 -80 63 -54 4 5 6 54 5 108 -3 144 -1 135 -23 124 -15 -8 -18
-21 -17 -65 1 -30 -1 -53 -5 -51 -3 3 -16 32 -28 65 -17 45 -27 60 -42 60 -18
0 -19 -8 -19 -125z"/>
<path d="M2433 1090 c-29 -12 -36 -43 -31 -135 3 -60 7 -77 23 -89 29 -22 68
-19 93 7 27 29 28 43 3 57 -17 8 -20 6 -23 -13 -2 -16 -10 -22 -28 -22 -21 0
-26 6 -30 35 -3 19 -3 57 0 84 4 43 8 50 28 51 16 1 24 -5 28 -22 7 -26 32
-31 41 -7 7 20 -35 64 -61 63 -12 0 -31 -4 -43 -9z"/>
<path d="M2570 975 l0 -125 49 0 c35 0 51 4 55 16 9 24 8 26 -16 24 -49 -4
-54 -1 -54 33 1 28 5 32 31 35 27 3 44 16 45 34 0 3 -14 5 -30 4 -35 -3 -46 9
-46 44 1 22 5 25 36 24 34 -1 54 12 44 28 -3 4 -30 8 -60 8 l-54 0 0 -125z"/>
<path d="M2825 1075 c-31 -30 -31 -39 -2 -52 20 -9 23 -8 24 10 2 23 20 37 40
30 24 -9 14 -42 -23 -69 -42 -33 -62 -68 -60 -109 2 -30 2 -30 69 -33 l67 -3
0 41 c0 22 -4 40 -10 40 -5 0 -13 0 -17 0 -5 0 -8 -8 -8 -18 0 -12 -10 -18
-33 -20 -30 -3 -33 -1 -27 18 4 12 27 39 51 62 49 45 56 76 24 108 -27 27 -66
25 -95 -5z"/>
<path d="M2993 1081 c-21 -17 -23 -28 -23 -103 0 -71 3 -88 20 -106 23 -24 50
-28 83 -11 32 18 34 23 36 118 2 86 2 86 -28 104 -37 22 -60 21 -88 -2z m66
-25 c7 -9 11 -42 9 -88 -3 -70 -4 -73 -28 -73 -24 0 -25 2 -28 79 -2 57 1 82
10 87 18 12 24 11 37 -5z"/>
<path d="M3133 1085 c0 -14 5 -16 24 -14 14 1 18 -31 17 -125 -1 -86 0 -93 18
-89 21 6 20 -2 22 136 l1 107 -41 0 c-29 0 -41 -4 -41 -15z"/>
<path d="M3244 1025 c0 -66 2 -75 18 -75 10 0 18 4 18 9 0 13 27 21 46 14 10
-4 14 -16 12 -42 -2 -29 -8 -37 -25 -39 -13 -2 -23 1 -23 6 0 5 -9 12 -20 15
-26 7 -27 -23 -2 -46 44 -40 106 -4 111 64 3 47 -24 80 -67 81 -28 1 -32 5
-32 27 0 25 3 27 38 26 52 -2 65 4 51 21 -7 9 -32 14 -68 14 l-57 0 0 -75z"/>
</g>
</svg>
