<svg xmlns="http://www.w3.org/2000/svg" width="566.929" height="566.929" xmlns:v="https://vecta.io/nano"><style><![CDATA[.B{fill:#ffffff}.C{fill:#ffffff}.D{fill:#ffffff}.E{font-family:Slumber \\s Weight}.F{writing-mode:lr}.G{fill:#ffffff}]]></style><defs><clipPath id="A"><path d="M0 425.197h425.197V0H0z"/></clipPath></defs><g transform="matrix(1.333333 0 0 -1.333333 0 566.92933)"><path d="M63.805 181.492h299.802V137.21H63.805z" fill="#000" stroke="#009aa3" stroke-width="1.48" stroke-miterlimit="10"/><text transform="matrix(1 0 0 -1 72.6548 144.9746)" font-family="Slumber \s Weight" font-size="39" class="D F"><tspan x="0 16.614 33.228 49.842 66.456 83.07 97.773 104.832 121.446" y="0">CROSSFIT </tspan></text><text transform="matrix(1 0 0 -.925926 238.3481 144.9746)" font-family="Slumber \s Weight" font-size="42.12" class="D F"><tspan x="0 17.564 35.128" y="0">AVA</tspan></text><text transform="matrix(1 0 0 -.952381 292.0039 144.9746)" font-family="Slumber \s Weight" font-size="40.95" class="D F"><tspan x="0 19.287 28.542 46.601" y="0">RIKO</tspan></text><g class="B"><path d="M165.648 222.041l7.486-16.247 6.779 1.499 13.733 10.292-20.971 6.01zm51.858-72.649h4.184-17.039l-2.78 25.369-11.832 3.93-1.83 28.653 21.574 16.251z"/><path d="M194.226 234.8l-10.946-4.561-5.701-5.701 16.647-7.297zm3.435.456v-27.637l8.612 31.539z"/></g><path d="M202.606 213.769l11.447 12.246 11.448-12.246-8.289 27.592-3.144 1.869h-.015-.014l-3.145-1.869z" class="G"/><g class="B"><path d="M262.695 221.115l-7.485-16.247-6.78 1.499-13.733 10.293 20.972 6.009zm-52.096-71.723h-4.183 17.038l2.78 25.369 11.832 3.93 1.83 28.653-21.574 16.251zM233.88 234.8l10.945-4.561 5.701-5.701-16.646-7.297z"/><path d="M230.444 235.256v-27.637l-8.612 31.539zm-4.944-21.487l-11.447 12.246-11.448-12.246 8.288 27.592 3.145 1.869h.015.014l3.145-1.869zm-20.849-64.377l9.402-4.02 9.401 4.02z"/></g><g clip-path="url(#A)"><g class="C"><path d="M205.75 222.58c.283 1.222.816 2.089-.954 2.673-.977.323-2.036.09-2.931-.361-1.396.2-2.792.47-4.167.815-2.341.588-4.587 1.398-6.758 2.36l11.495-14.798c3.752 2.77 7.177 5.539 6.419 5.725-1.362.338-3.492 1.928-3.104 3.586m-53.09 5.645c-2.862-.064-5.749.302-8.517.913-3.842.855-7.824 2.141-11.44 4.029l3.051-3.107 9.427-3.767-10.747-5.794-16.777 6.705a60.04 60.04 0 0 1 3.683-2.073c11.979-6.142 25.699-7.722 38.856-5.177 1.838.354 3.644.861 5.452 1.331l-4.259 4.153z"/></g><path d="M109.278 243.779c-7.537 14.716-6.892 32.486-4.736 38.786 2.939-5.732 4.563-12.315 6.938-18.305l.734-1.831 5.924 2.024 16.369 45.473 6.221 2.222 20.199-8.072 7.494.368 2.899 8.482-9.303 15.376-29.005-5.223-45.864-50.41c5.249-9.349 12.289-19.494 22.13-28.89" class="B"/><path d="M87.057 259.611l.552-.411-.994 1.534z" class="G"/><g class="B"><path d="M123.928 240.224c2.318-2.987 5.386-5.286 8.775-7.056l-12.829 13.065c1.238-2.085 2.574-4.103 4.054-6.009m-25.396 4.104l-4.737 6.116-1.642.629 17.465-20.657 8.039-3.213c-7.361 4.459-13.744 10.425-19.125 17.125"/></g><path d="M145.18 226.293l-9.426 3.767-3.052 3.108c-3.389 1.77-6.457 4.069-8.774 7.056-1.48 1.905-2.816 3.923-4.054 6.008l-13.832 14.087 6.171 2.11-.734 1.831c-2.374 5.99-3.999 12.573-6.937 18.305-2.156-6.3-2.801-24.07 4.736-38.786-9.841 9.396-16.882 19.541-22.13 28.89l-3.651-4.012 3.118-7.923.994-1.533 17.701-13.162-11.516 4.405c1.548-2.065 3.125-4.107 4.738-6.116 5.38-6.7 11.764-12.665 19.125-17.124l16.776-6.705z" class="C"/><path d="M136.985 233.23l15.675-5.004c1.902.042 3.794.27 5.632.758l1.361.4-12.28 27.912-18.993 6.082-15.095-3.573 1.893-4.404z" class="B"/><path d="M152.66 228.225l8.729-2.787-1.735 3.946-1.362-.4c-1.838-.489-3.73-.717-5.632-.759" class="C"/><g class="B"><path d="M115.178 255.401l-1.893 4.403-1.977-.468zm75.762-27.334l-4.134 5.321-6.254 17.59-17.609 7.037-.857-.04 1.101-2.182c6.178-11.57 15.619-22.35 27.753-27.726m-20.005 3.823c-4.231 1.363-11.762 17.957-12.102 25.935l-11.46-.529 12.281-27.912c3.699 1.17 7.282 2.911 11.281 2.506m24.326-20.565c-1.119.016-3.237-.181-3.842 1.014-.695 1.343.389 2.859-1.071 4.025-.974.782-2.068 1.43-3.16 2.029-3.718 2.04-7.845 3.576-12.077 4.038-3.263.361-6.364-.339-9.464-1.146l9.941-9.695 17.004-6.796 6.197-1.945 3.952 10.024-.307.395c-1.736-1.282-3.542-2.565-5.036-3.593-.517.888-1.024 1.627-2.137 1.65"/></g><g class="C"><path d="M163.187 255.792l-1.101 2.183-3.253-.15c.34-7.978 7.87-24.572 12.102-25.935-3.999.405-7.582-1.336-11.282-2.506l1.736-3.946 4.258-4.153c3.1.807 6.202 1.507 9.464 1.147 4.232-.463 8.36-1.998 12.077-4.039 1.092-.599 2.186-1.247 3.16-2.029 1.461-1.166.377-2.682 1.071-4.025.605-1.195 2.723-.998 3.842-1.014 1.114-.023 1.62-.762 2.137-1.65a194.16 194.16 0 0 1 5.037 3.594l-11.495 14.797c-12.134 5.376-21.575 16.156-27.753 27.726m59.407-33.212c-.283 1.222-.816 2.089.953 2.673.978.323 2.036.09 2.932-.361 1.395.2 2.792.47 4.167.815 2.341.588 4.587 1.398 6.758 2.36l-11.496-14.798c-3.751 2.77-7.176 5.539-6.418 5.725 1.362.338 3.492 1.928 3.104 3.586m53.089 5.645c2.862-.064 5.749.302 8.518.913 3.842.855 7.824 2.141 11.44 4.029l-3.052-3.107-9.426-3.767 10.747-5.794 16.777 6.705c-1.204-.729-2.427-1.428-3.683-2.073-11.979-6.142-25.699-7.722-38.856-5.177-1.838.354-3.645.861-5.452 1.331l4.258 4.153z"/></g><path d="M319.065 243.779c7.536 14.716 6.892 32.486 4.735 38.786-2.938-5.732-4.562-12.315-6.937-18.305l-.734-1.831-5.924 2.024-16.369 45.473-6.221 2.222-20.199-8.072-7.495.368-2.898 8.482 9.303 15.376 29.005-5.223 45.864-50.41c-5.249-9.349-12.289-19.494-22.13-28.89" class="B"/><path d="M341.286 259.611l-.552-.411.993 1.534z" class="G"/><g class="B"><path d="M304.415 240.224c-2.317-2.987-5.386-5.286-8.774-7.056l12.828 13.065c-1.238-2.085-2.574-4.103-4.054-6.009m25.397 4.104l4.737 6.116 1.642.629-17.465-20.657-8.039-3.213c7.36 4.459 13.744 10.425 19.125 17.125"/></g><path d="M283.163 226.293l9.426 3.767 3.052 3.108c3.388 1.77 6.457 4.069 8.774 7.056 1.48 1.905 2.816 3.923 4.054 6.008l13.832 14.087-6.171 2.11.733 1.831c2.375 5.99 3.999 12.573 6.938 18.305 2.156-6.3 2.8-24.07-4.736-38.786 9.841 9.396 16.881 19.541 22.13 28.89l3.651-4.012-3.119-7.923-.993-1.533-17.702-13.162 11.517 4.405c-1.548-2.065-3.125-4.107-4.738-6.116-5.38-6.7-11.764-12.665-19.125-17.124l-16.777-6.705z" class="C"/><path d="M291.358 233.23l-15.676-5.004c-1.901.042-3.793.27-5.631.758l-1.362.4 12.281 27.912 18.992 6.082 15.095-3.573-1.892-4.404z" class="B"/><path d="M275.683 228.225l-8.729-2.787 1.736 3.946 1.362-.4c1.838-.489 3.73-.717 5.631-.759" class="C"/><g class="B"><path d="M313.165 255.401l1.893 4.403 1.977-.468zm-75.762-27.334l4.134 5.321 6.254 17.59 17.608 7.037.858-.04-1.101-2.182c-6.179-11.57-15.619-22.35-27.753-27.726m20.005 3.823c4.231 1.363 11.762 17.957 12.102 25.935l11.46-.529-12.281-27.912c-3.699 1.17-7.282 2.911-11.281 2.506m-24.326-20.565c1.119.016 3.237-.181 3.842 1.014.694 1.343-.39 2.859 1.071 4.025.974.782 2.068 1.43 3.159 2.029 3.718 2.04 7.846 3.576 12.078 4.038 3.262.361 6.364-.339 9.463-1.146l-9.94-9.695-17.004-6.796-6.197-1.945-3.952 10.024.306.395c1.737-1.282 3.543-2.565 5.036-3.593.518.888 1.025 1.627 2.138 1.65"/></g><path d="M265.156 255.792l1.101 2.183 3.253-.15c-.34-7.978-7.871-24.572-12.102-25.935 3.999.405 7.582-1.336 11.281-2.506l-1.735-3.946-4.259-4.153c-3.1.807-6.201 1.507-9.463 1.147-4.232-.463-8.36-1.998-12.078-4.039-1.091-.599-2.185-1.247-3.159-2.029-1.461-1.166-.377-2.682-1.071-4.025-.605-1.195-2.723-.998-3.842-1.014-1.114-.023-1.62-.762-2.138-1.65-1.493 1.029-3.3 2.311-5.036 3.594l11.495 14.797c12.134 5.376 21.574 16.156 27.753 27.726" class="C"/><path d="M143.553 265.791l61 43 31.5-21.5 9 3 39.5-27h-42.5l6 7.5-12-2 11 6.5-7.5 2 6.5 8.75-43.5-22.75h-8.5l7.5 9.5-20.5-3.5 15 11-3 5.75 5 6.25 3.5 9z" class="D"/></g></g></svg>