<?xml version="1.0" encoding="UTF-8"?>
<svg id="Calque_1" data-name="Calque 1" xmlns="http://www.w3.org/2000/svg" viewBox="0 0 261.35 202.27">
  <defs>
    <style>
      .cls-1 {
        fill: none;
      }

      .cls-2 {
        fill: #009aa2;
      }

      .cls-3 {
        fill: #c78c0d;
      }

      .cls-4 {
        fill: #1d1d1b;
      }

      .cls-5 {
        fill: #878787;
      }
    </style>
  </defs>
  <g>
    <path class="cls-2" d="m161.58,169.65l-1.02,2.04h-2.97l-.76,2.83h-2.95l5.98-22.27,5.98,22.27h-2.95l-1.3-4.87Zm-3.24-.79h3.03l-1.51-5.62-1.52,5.62Z"/>
    <path class="cls-2" d="m173.61,157.53v15.58l-2.83,1.42v-16.99h-3.54v-2.83h9.91v2.83h-3.54Z"/>
    <path class="cls-2" d="m182.41,166.02v7.08l-2.83,1.42v-19.82h2.83v8.5h4.25v-7.08l2.83-1.42v19.82h-2.83v-8.5h-4.25Z"/>
    <path class="cls-2" d="m191.92,154.69h2.83v16.99h5.66v2.83h-8.5v-19.82Z"/>
    <path class="cls-2" d="m205.68,171.69h5.66l-1.42,2.83h-7.08v-19.82h8.5v2.83h-5.66v5.66h5.66l-1.42,2.83h-4.25v5.66Z"/>
    <path class="cls-2" d="m220.15,157.53v15.58l-2.83,1.42v-16.99h-3.54v-2.83h9.91v2.83h-3.54Z"/>
    <path class="cls-2" d="m228.95,173.1l-2.83,1.42v-19.82h2.83v18.41Z"/>
    <path class="cls-2" d="m241.29,160.36l-2.83,1.42v-2.12c0-.58-.21-1.09-.62-1.5-.41-.42-.92-.62-1.5-.62s-1.08.21-1.5.62c-.42.42-.62.92-.62,1.5v9.91c0,.58.21,1.09.62,1.5.42.42.92.62,1.5.62s1.09-.21,1.5-.62c.42-.42.62-.92.62-1.5v-2.12l2.83,1.42v.71c0,1.37-.48,2.54-1.45,3.5-.97.97-2.13,1.45-3.5,1.45s-2.54-.48-3.5-1.45c-.97-.97-1.45-2.14-1.45-3.5v-9.91c0-1.37.48-2.54,1.45-3.5.97-.97,2.14-1.45,3.5-1.45s2.54.48,3.5,1.45c.97.97,1.45,2.14,1.45,3.5v.71Z"/>
    <path class="cls-2" d="m253.64,160.36l-2.83,1.42v-2.12c0-.58-.21-1.09-.62-1.5s-.92-.62-1.5-.62-1.09.21-1.5.62-.62.92-.62,1.5.21,1.09.62,1.5l3.23,3.16,1.6,1.59.18.16c.96.97,1.44,2.14,1.44,3.51s-.48,2.54-1.45,3.5-2.14,1.45-3.5,1.45-2.54-.48-3.5-1.45-1.45-2.14-1.45-3.5v-.71l2.83-1.42v2.12c0,.58.21,1.09.62,1.5s.92.62,1.5.62,1.09-.21,1.5-.62.62-.92.62-1.5-.21-1.09-.62-1.5l-3.23-3.16-1.8-1.76h.01c-.96-.96-1.44-2.13-1.44-3.5s.48-2.54,1.45-3.5,2.14-1.45,3.5-1.45,2.54.48,3.5,1.45,1.45,2.14,1.45,3.5v.71Z"/>
  </g>
  <g>
    <path class="cls-2" d="m24.91,169.65l-1.1,2.04h-3.21l-.83,2.83h-3.18l6.45-22.27,6.45,22.27h-3.18l-1.41-4.87Zm-3.5-.79h3.27l-1.64-5.62-1.64,5.62Z"/>
    <path class="cls-2" d="m39.35,154.69h3.18l-6.44,22.27-6.45-22.27h3.18l3.27,11.29,3.26-11.29Z"/>
    <path class="cls-2" d="m51.01,169.65l-1.1,2.04h-3.21l-.83,2.83h-3.18l6.45-22.27,6.45,22.27h-3.18l-1.41-4.87Zm-3.5-.79h3.27l-1.64-5.62-1.64,5.62Z"/>
    <path class="cls-2" d="m62.79,154.69c1.44,0,2.66.48,3.68,1.45,1.02.97,1.52,2.14,1.52,3.5v1.42c0,1.37-.51,2.53-1.52,3.5-.84.8-1.83,1.28-2.96,1.42l5.17,8.54h-3.45l-4.68-7.72v6.3l-2.97,1.42v-19.82h5.2Zm2.23,4.96c0-.58-.22-1.09-.65-1.5-.44-.42-.96-.62-1.58-.62h-2.23v5.66h2.23c.61,0,1.14-.21,1.58-.62.44-.42.65-.92.65-1.5v-1.42Z"/>
    <path class="cls-2" d="m74.89,173.1l-2.97,1.42v-19.82h2.97v18.41Z"/>
    <path class="cls-2" d="m81.79,166.8v6.3l-2.97,1.42v-19.82h2.97v7.72l4.68-7.72h3.45l-6.01,9.91,6.01,9.91h-3.45l-4.68-7.72Z"/>
    <path class="cls-2" d="m102.64,169.56c0,1.37-.51,2.54-1.52,3.5-1.02.97-2.24,1.45-3.68,1.45s-2.66-.48-3.68-1.45c-1.02-.97-1.52-2.14-1.52-3.5v-9.91c0-1.37.51-2.54,1.52-3.5,1.02-.97,2.24-1.45,3.68-1.45s2.66.48,3.68,1.45c1.02.97,1.52,2.14,1.52,3.5v9.91Zm-7.43,0c0,.58.22,1.09.65,1.5.44.42.96.62,1.58.62s1.14-.21,1.58-.62c.44-.42.65-.92.65-1.5v-9.91c0-.58-.22-1.09-.65-1.5-.44-.42-.96-.62-1.58-.62s-1.14.21-1.58.62c-.44.42-.65.92-.65,1.5v9.91Z"/>
  </g>
  <g>
    <path class="cls-2" d="m103.13,193.48l-1.9.88v-1.32c0-.36-.14-.67-.42-.93-.28-.26-.61-.39-1.01-.39s-.73.13-1.01.39-.42.57-.42.93.14.67.42.93l2.16,1.96,1.07.98.12.1c.65.6.97,1.33.97,2.18s-.32,1.58-.97,2.18c-.65.6-1.43.9-2.35.9s-1.7-.3-2.35-.9c-.65-.6-.97-1.33-.97-2.18v-.44l1.9-.88v1.32c0,.36.14.67.42.93s.61.39,1.01.39.73-.13,1.01-.39c.28-.26.42-.57.42-.93s-.14-.67-.42-.93l-2.16-1.96-1.21-1.09h0c-.65-.6-.97-1.32-.97-2.17s.32-1.57.97-2.18c.65-.6,1.43-.9,2.35-.9s1.7.3,2.35.9c.65.6.97,1.33.97,2.18v.44Z"/>
    <path class="cls-2" d="m106.48,201.39l-1.9.88v-12.3h1.9v11.43Z"/>
    <path class="cls-2" d="m109.83,194.88v6.51l-1.9.88v-12.3h2.16l2.58,7.39v-6.51l1.9-.88v12.3h-2.16l-2.58-7.39Z"/>
    <path class="cls-2" d="m122.68,193.48l-1.9.88v-1.32c0-.36-.14-.67-.42-.93s-.61-.39-1.01-.39-.73.13-1.01.39c-.28.26-.42.57-.42.93v6.15c0,.36.14.67.42.93.28.26.61.39,1.01.39s.73-.13,1.01-.39.42-.57.42-.93v-1.32l1.9.88v.44c0,.85-.32,1.58-.97,2.18-.65.6-1.43.9-2.35.9s-1.7-.3-2.35-.9-.97-1.33-.97-2.18v-6.15c0-.85.32-1.57.97-2.18.65-.6,1.43-.9,2.35-.9s1.7.3,2.35.9c.65.6.97,1.33.97,2.18v.44Z"/>
    <path class="cls-2" d="m126.03,200.51h3.8l-.95,1.76h-4.75v-12.3h5.7v1.76h-3.8v3.52h3.8l-.95,1.76h-2.85v3.52Z"/>
    <path class="cls-2" d="m137.48,194.36l-1.9-.88v-.44c0-.85.32-1.57.97-2.18.65-.6,1.43-.9,2.35-.9s1.7.3,2.35.9c.65.6.97,1.33.97,2.18s-.32,1.57-.97,2.17h0l-1.21,1.09-2.16,1.96c-.28.26-.42.57-.42.93v1.32h2.85v-2.64l1.9.88v3.52h-6.64v-3.08c0-.85.33-1.58.98-2.18l.11-.1,1.07-.98,2.16-1.96c.28-.26.42-.57.42-.93s-.14-.67-.42-.93-.61-.39-1.01-.39-.73.13-1.01.39c-.28.26-.42.57-.42.93v1.32Z"/>
    <path class="cls-2" d="m150.33,199.2c0,.85-.32,1.58-.97,2.18-.65.6-1.43.9-2.35.9s-1.7-.3-2.35-.9-.97-1.33-.97-2.18v-6.15c0-.85.32-1.57.97-2.18.65-.6,1.43-.9,2.35-.9s1.7.3,2.35.9c.65.6.97,1.33.97,2.18v6.15Zm-4.75,0c0,.36.14.67.42.93.28.26.61.39,1.01.39s.73-.13,1.01-.39.42-.57.42-.93v-6.15c0-.36-.14-.67-.42-.93s-.61-.39-1.01-.39-.73.13-1.01.39c-.28.26-.42.57-.42.93v6.15Z"/>
    <path class="cls-2" d="m155.58,201.39l-1.9.88v-10.55h-1.9v-1.76h3.8v11.43Z"/>
    <path class="cls-2" d="m163.68,199.2c0,.85-.32,1.58-.97,2.18-.65.6-1.43.9-2.35.9s-1.7-.3-2.35-.9-.97-1.33-.97-2.18h1.9c0,.36.14.67.42.93.28.26.61.39,1.01.39s.73-.13,1.01-.39.42-.57.42-.93v-1.76c0-.36-.14-.67-.42-.93s-.61-.39-1.01-.39-.73.13-1.01.39c-.28.26-.42.57-.42.93h-1.9v-7.47h5.7l.95,1.76h-4.75v2.93c.43-.19.91-.29,1.42-.29.92,0,1.7.3,2.35.9.65.6.97,1.33.97,2.18v1.76Z"/>
  </g>
  <polygon class="cls-4" points="82.15 106.26 89.64 122.51 96.42 121.01 110.15 110.72 89.18 104.71 82.15 106.26"/>
  <polygon class="cls-4" points="134.01 178.91 138.19 178.91 121.15 178.91 118.37 153.54 106.54 149.61 104.71 120.96 126.29 104.71 134.01 178.91"/>
  <polygon class="cls-4" points="110.73 93.5 99.78 98.06 94.08 103.76 110.73 111.06 110.73 93.5"/>
  <polygon class="cls-4" points="114.16 93.05 114.16 120.68 122.78 89.14 114.16 93.05"/>
  <polygon class="cls-3" points="119.11 114.53 130.56 102.29 130.56 102.29 130.56 102.29 142 114.53 133.71 86.94 130.57 85.07 130.56 85.07 130.54 85.07 127.4 86.94 119.11 114.53"/>
  <polygon class="cls-4" points="179.2 107.19 171.71 123.43 164.93 121.93 151.2 111.64 172.17 105.63 179.2 107.19"/>
  <polygon class="cls-4" points="127.1 178.91 122.92 178.91 139.96 178.91 142.74 153.54 154.57 149.61 156.4 120.96 134.82 104.71 127.1 178.91"/>
  <polygon class="cls-4" points="150.38 93.5 161.33 98.06 167.03 103.76 150.38 111.06 150.38 93.5"/>
  <polygon class="cls-4" points="146.95 93.05 146.95 120.68 138.34 89.14 146.95 93.05"/>
  <polygon class="cls-4" points="142 114.53 130.56 102.29 130.56 102.29 130.56 102.29 119.11 114.53 127.4 86.94 130.54 85.07 130.56 85.07 130.57 85.07 133.71 86.94 142 114.53"/>
  <polygon class="cls-4" points="121.15 178.91 130.56 182.93 139.96 178.91 121.15 178.91"/>
  <g>
    <path class="cls-1" d="m31.68,72.9c1.41,3.14,2.95,6.22,4.7,9.17l12.83,13.07c3.62,1.89,7.6,3.17,11.44,4.03,2.77.61,5.66.98,8.52.91l-15.67-5-21.81-22.17Z"/>
    <path class="cls-5" d="m122.25,105.72c.28-1.22.82-2.09-.95-2.67-.98-.32-2.04-.09-2.93.36-1.4-.2-2.79-.47-4.17-.82-2.34-.59-4.59-1.4-6.76-2.36l11.49,14.8c3.75-2.77,7.18-5.54,6.42-5.72-1.36-.34-3.49-1.93-3.1-3.59Z"/>
    <path class="cls-5" d="m69.16,100.08c-2.86.06-5.75-.3-8.52-.91-3.84-.86-7.82-2.14-11.44-4.03l3.05,3.11,9.43,3.77-10.75,5.79-16.78-6.71c1.2.73,2.43,1.43,3.68,2.07,11.98,6.14,25.7,7.72,38.86,5.18,1.84-.35,3.64-.86,5.45-1.33l-4.26-4.15-8.73-2.79Z"/>
    <path class="cls-4" d="m25.78,84.52c-7.54-14.72-6.89-32.49-4.74-38.79,2.94,5.73,4.56,12.31,6.94,18.3.24.61.49,1.22.73,1.83l5.92-2.02,16.37-45.47,6.22-2.22,20.2,8.07,7.49-.37,2.9-8.48L78.52,0l-29,5.22L3.65,55.63c5.25,9.35,12.29,19.49,22.13,28.89Z"/>
    <path class="cls-3" d="m3.56,68.69l.55.41c-.34-.51-.66-1.02-.99-1.53l.44,1.12Z"/>
    <path class="cls-4" d="m40.43,88.08c2.32,2.99,5.39,5.29,8.77,7.06l-12.83-13.07c1.24,2.09,2.57,4.1,4.05,6.01Z"/>
    <path class="cls-4" d="m15.03,83.97c-1.61-2.01-3.19-4.05-4.74-6.12l-1.64-.63,17.46,20.66,8.04,3.21c-7.36-4.46-13.74-10.42-19.12-17.12Z"/>
    <path class="cls-5" d="m61.68,102.01l-9.43-3.77-3.05-3.11c-3.39-1.77-6.46-4.07-8.77-7.06-1.48-1.91-2.82-3.92-4.05-6.01l-13.83-14.09,6.17-2.11c-.25-.61-.49-1.22-.73-1.83-2.37-5.99-4-12.57-6.94-18.3-2.16,6.3-2.8,24.07,4.74,38.79-9.84-9.4-16.88-19.54-22.13-28.89l-3.65,4.01,3.12,7.92c.33.51.66,1.03.99,1.53l17.7,13.16-11.52-4.41c1.55,2.07,3.13,4.11,4.74,6.12,5.38,6.7,11.76,12.67,19.12,17.12l16.78,6.71,10.75-5.79Z"/>
    <path class="cls-4" d="m53.49,95.07l15.67,5c1.9-.04,3.79-.27,5.63-.76.46-.12.91-.26,1.36-.4l-12.28-27.91-18.99-6.08-15.09,3.57c.61,1.47,1.24,2.94,1.89,4.4l21.81,22.17Z"/>
    <path class="cls-5" d="m69.16,100.08l8.73,2.79-1.74-3.95c-.45.14-.91.28-1.36.4-1.84.49-3.73.72-5.63.76Z"/>
    <path class="cls-4" d="m31.68,72.9c-.66-1.46-1.28-2.93-1.89-4.4l-1.98.47,3.87,3.93Z"/>
    <path class="cls-4" d="m107.44,100.24l-4.13-5.32-6.25-17.59-17.61-7.04-.86.04c.36.73.72,1.47,1.1,2.18,6.18,11.57,15.62,22.35,27.75,27.73Z"/>
    <path class="cls-4" d="m87.44,96.41c-4.23-1.36-11.76-17.96-12.1-25.93l-11.46.53,12.28,27.91c3.7-1.17,7.28-2.91,11.28-2.51Z"/>
    <path class="cls-4" d="m111.76,116.98c-1.12-.02-3.24.18-3.84-1.01-.69-1.34.39-2.86-1.07-4.03-.97-.78-2.07-1.43-3.16-2.03-3.72-2.04-7.85-3.58-12.08-4.04-3.26-.36-6.36.34-9.46,1.15l9.94,9.7,17,6.8,6.2,1.95,3.95-10.02-.31-.4c-1.74,1.28-3.54,2.57-5.04,3.59-.52-.89-1.02-1.63-2.14-1.65Z"/>
    <path class="cls-5" d="m79.69,72.51c-.38-.72-.74-1.45-1.1-2.18l-3.25.15c.34,7.98,7.87,24.57,12.1,25.93-4-.4-7.58,1.34-11.28,2.51l1.74,3.95,4.26,4.15c3.1-.81,6.2-1.51,9.46-1.15,4.23.46,8.36,2,12.08,4.04,1.09.6,2.19,1.25,3.16,2.03,1.46,1.17.38,2.68,1.07,4.03.6,1.2,2.72,1,3.84,1.01,1.11.02,1.62.76,2.14,1.65,1.49-1.03,3.3-2.31,5.04-3.59l-11.49-14.8c-12.13-5.38-21.57-16.16-27.75-27.73Z"/>
  </g>
  <g>
    <path class="cls-1" d="m229.67,72.9c-1.41,3.14-2.95,6.22-4.7,9.17l-12.83,13.07c-3.62,1.89-7.6,3.17-11.44,4.03-2.77.61-5.66.98-8.52.91l15.67-5,21.81-22.17Z"/>
    <path class="cls-5" d="m139.1,105.72c-.28-1.22-.82-2.09.95-2.67.98-.32,2.04-.09,2.93.36,1.4-.2,2.79-.47,4.17-.82,2.34-.59,4.59-1.4,6.76-2.36l-11.49,14.8c-3.75-2.77-7.18-5.54-6.42-5.72,1.36-.34,3.49-1.93,3.1-3.59Z"/>
    <path class="cls-5" d="m192.19,100.08c2.86.06,5.75-.3,8.52-.91,3.84-.86,7.82-2.14,11.44-4.03l-3.05,3.11-9.43,3.77,10.75,5.79,16.78-6.71c-1.2.73-2.43,1.43-3.68,2.07-11.98,6.14-25.7,7.72-38.86,5.18-1.84-.35-3.64-.86-5.45-1.33l4.26-4.15,8.73-2.79Z"/>
    <path class="cls-4" d="m235.57,84.52c7.54-14.72,6.89-32.49,4.74-38.79-2.94,5.73-4.56,12.31-6.94,18.3-.24.61-.49,1.22-.73,1.83l-5.92-2.02-16.37-45.47-6.22-2.22-20.2,8.07-7.49-.37-2.9-8.48,9.3-15.38,29,5.22,45.86,50.41c-5.25,9.35-12.29,19.49-22.13,28.89Z"/>
    <path class="cls-3" d="m257.79,68.69l-.55.41c.34-.51.66-1.02.99-1.53l-.44,1.12Z"/>
    <path class="cls-4" d="m220.92,88.08c-2.32,2.99-5.39,5.29-8.77,7.06l12.83-13.07c-1.24,2.09-2.57,4.1-4.05,6.01Z"/>
    <path class="cls-4" d="m246.31,83.97c1.61-2.01,3.19-4.05,4.74-6.12l1.64-.63-17.46,20.66-8.04,3.21c7.36-4.46,13.74-10.42,19.12-17.12Z"/>
    <path class="cls-5" d="m199.67,102.01l9.43-3.77,3.05-3.11c3.39-1.77,6.46-4.07,8.77-7.06,1.48-1.91,2.82-3.92,4.05-6.01l13.83-14.09-6.17-2.11c.25-.61.49-1.22.73-1.83,2.37-5.99,4-12.57,6.94-18.3,2.16,6.3,2.8,24.07-4.74,38.79,9.84-9.4,16.88-19.54,22.13-28.89l3.65,4.01-3.12,7.92c-.33.51-.66,1.03-.99,1.53l-17.7,13.16,11.52-4.41c-1.55,2.07-3.13,4.11-4.74,6.12-5.38,6.7-11.76,12.67-19.12,17.12l-16.78,6.71-10.75-5.79Z"/>
    <path class="cls-4" d="m207.86,95.07l-15.67,5c-1.9-.04-3.79-.27-5.63-.76-.46-.12-.91-.26-1.36-.4l12.28-27.91,18.99-6.08,15.09,3.57c-.61,1.47-1.24,2.94-1.89,4.4l-21.81,22.17Z"/>
    <path class="cls-5" d="m192.19,100.08l-8.73,2.79,1.74-3.95c.45.14.91.28,1.36.4,1.84.49,3.73.72,5.63.76Z"/>
    <path class="cls-4" d="m229.67,72.9c.66-1.46,1.28-2.93,1.89-4.4l1.98.47-3.87,3.93Z"/>
    <path class="cls-4" d="m153.91,100.24l4.13-5.32,6.25-17.59,17.61-7.04.86.04c-.36.73-.72,1.47-1.1,2.18-6.18,11.57-15.62,22.35-27.75,27.73Z"/>
    <path class="cls-4" d="m173.91,96.41c4.23-1.36,11.76-17.96,12.1-25.93l11.46.53-12.28,27.91c-3.7-1.17-7.28-2.91-11.28-2.51Z"/>
    <path class="cls-4" d="m149.58,116.98c1.12-.02,3.24.18,3.84-1.01.69-1.34-.39-2.86,1.07-4.03.97-.78,2.07-1.43,3.16-2.03,3.72-2.04,7.85-3.58,12.08-4.04,3.26-.36,6.36.34,9.46,1.15l-9.94,9.7-17,6.8-6.2,1.95-3.95-10.02.31-.4c1.74,1.28,3.54,2.57,5.04,3.59.52-.89,1.02-1.63,2.14-1.65Z"/>
    <path class="cls-5" d="m181.66,72.51c.38-.72.74-1.45,1.1-2.18l3.25.15c-.34,7.98-7.87,24.57-12.1,25.93,4-.4,7.58,1.34,11.28,2.51l-1.74,3.95-4.26,4.15c-3.1-.81-6.2-1.51-9.46-1.15-4.23.46-8.36,2-12.08,4.04-1.09.6-2.19,1.25-3.16,2.03-1.46,1.17-.38,2.68-1.07,4.03-.6,1.2-2.72,1-3.84,1.01-1.11.02-1.62.76-2.14,1.65-1.49-1.03-3.3-2.31-5.04-3.59l11.49-14.8c12.13-5.38,21.57-16.16,27.75-27.73Z"/>
  </g>
  <polygon class="cls-2" points="60.06 62.51 121.06 19.51 152.56 41.01 161.56 38.01 201.06 65.01 158.56 65.01 164.56 57.51 152.56 59.51 163.56 53.01 156.06 51.01 162.56 42.26 119.06 65.01 110.56 65.01 118.06 55.51 97.56 59.01 112.56 48.01 109.56 42.26 114.56 36.01 118.06 27.01 60.06 62.51"/>
</svg>