<svg xmlns="http://www.w3.org/2000/svg" viewBox="0 0 261.35 202.27" xmlns:v="https://vecta.io/nano"><style><![CDATA[.F{fill:#1d1d1b}.G{fill:#878787}.H{fill:#c78c0d}]]></style><path d="M161.58 169.65l-1.02 2.04h-2.97l-.76 2.83h-2.95l5.98-22.27 5.98 22.27h-2.95l-1.3-4.87zm-3.24-.79h3.03l-1.51-5.62-1.52 5.62zm15.27-11.33v15.58l-2.83 1.42v-16.99h-3.54v-2.83h9.91v2.83h-3.54zm8.8 8.49v7.08l-2.83 1.42V154.7h2.83v8.5h4.25v-7.08l2.83-1.42v19.82h-2.83v-8.5h-4.25zm9.51-11.33h2.83v16.99h5.66v2.83h-8.5v-19.82zm13.76 17h5.66l-1.42 2.83h-7.08V154.7h8.5v2.83h-5.66v5.66h5.66l-1.42 2.83h-4.25v5.66zm14.47-14.16v15.58l-2.83 1.42v-16.99h-3.54v-2.83h9.91v2.83h-3.54zm8.8 15.57l-2.83 1.42V154.7h2.83v18.41zm12.34-12.74l-2.83 1.42v-2.12a2.06 2.06 0 0 0-.62-1.5c-.41-.42-.92-.62-1.5-.62s-1.08.21-1.5.62c-.42.42-.62.92-.62 1.5v9.91a2.06 2.06 0 0 0 .62 1.5c.42.42.92.62 1.5.62a2.06 2.06 0 0 0 1.5-.62c.42-.42.62-.92.62-1.5v-2.12l2.83 1.42v.71c0 1.37-.48 2.54-1.45 3.5-.97.97-2.13 1.45-3.5 1.45s-2.54-.48-3.5-1.45a4.77 4.77 0 0 1-1.45-3.5v-9.91c0-1.37.48-2.54 1.45-3.5a4.77 4.77 0 0 1 3.5-1.45c1.36 0 2.54.48 3.5 1.45a4.77 4.77 0 0 1 1.45 3.5v.71zm12.35 0l-2.83 1.42v-2.12a2.06 2.06 0 0 0-2.12-2.12 2.06 2.06 0 0 0-2.12 2.12 2.06 2.06 0 0 0 .62 1.5l3.23 3.16 1.6 1.59.18.16c.96.97 1.44 2.14 1.44 3.51s-.48 2.54-1.45 3.5a4.81 4.81 0 0 1-3.5 1.45c-1.36 0-2.54-.48-3.5-1.45a4.81 4.81 0 0 1-1.45-3.5v-.71l2.83-1.42v2.12a2.06 2.06 0 0 0 2.12 2.12 2.06 2.06 0 0 0 2.12-2.12 2.06 2.06 0 0 0-.62-1.5l-3.23-3.16-1.8-1.76h.01c-.96-.96-1.44-2.13-1.44-3.5s.48-2.54 1.45-3.5a4.81 4.81 0 0 1 3.5-1.45c1.36 0 2.54.48 3.5 1.45a4.81 4.81 0 0 1 1.45 3.5v.71zm-228.73 9.29l-1.1 2.04H20.6l-.83 2.83h-3.18l6.45-22.27 6.45 22.27h-3.18l-1.41-4.87zm-3.5-.79h3.27l-1.64-5.62-1.64 5.62zm17.94-14.17h3.18l-6.44 22.27-6.45-22.27h3.18l3.27 11.29 3.26-11.29zm11.66 14.96l-1.1 2.04H46.7l-.83 2.83h-3.18l6.45-22.27 6.45 22.27h-3.18L51 169.65zm-3.5-.79h3.27l-1.64-5.62-1.64 5.62zm15.28-14.17c1.44 0 2.66.48 3.68 1.45a4.65 4.65 0 0 1 1.52 3.5v1.42c0 1.37-.51 2.53-1.52 3.5a5.12 5.12 0 0 1-2.96 1.42l5.17 8.54h-3.45l-4.68-7.72v6.3l-2.97 1.42V154.7h5.2zm2.23 4.96c0-.58-.22-1.09-.65-1.5-.44-.42-.96-.62-1.58-.62h-2.23v5.66h2.23c.61 0 1.14-.21 1.58-.62.44-.42.65-.92.65-1.5v-1.42zm9.87 13.45l-2.97 1.42V154.7h2.97v18.41zm6.9-6.3v6.3l-2.97 1.42V154.7h2.97v7.72l4.68-7.72h3.45l-6.01 9.91 6.01 9.91h-3.45l-4.68-7.72zm20.85 2.76c0 1.37-.51 2.54-1.52 3.5-1.02.97-2.24 1.45-3.68 1.45s-2.66-.48-3.68-1.45a4.65 4.65 0 0 1-1.52-3.5v-9.91c0-1.37.51-2.54 1.52-3.5 1.02-.97 2.24-1.45 3.68-1.45s2.66.48 3.68 1.45a4.65 4.65 0 0 1 1.52 3.5v9.91zm-7.43 0c0 .58.22 1.09.65 1.5.44.42.96.62 1.58.62a2.23 2.23 0 0 0 1.58-.62c.44-.42.65-.92.65-1.5v-9.91c0-.58-.22-1.09-.65-1.5-.44-.42-.96-.62-1.58-.62a2.23 2.23 0 0 0-1.58.62c-.44.42-.65.92-.65 1.5v9.91zm7.92 23.92l-1.9.88v-1.32c0-.36-.14-.67-.42-.93a1.42 1.42 0 0 0-1.01-.39 1.42 1.42 0 0 0-1.01.39c-.28.26-.42.57-.42.93s.14.67.42.93l2.16 1.96 1.07.98.12.1c.65.6.97 1.33.97 2.18s-.32 1.58-.97 2.18-1.43.9-2.35.9-1.7-.3-2.35-.9-.97-1.33-.97-2.18v-.44l1.9-.88v1.32c0 .36.14.67.42.93a1.42 1.42 0 0 0 1.01.39 1.42 1.42 0 0 0 1.01-.39c.28-.26.42-.57.42-.93s-.14-.67-.42-.93l-2.16-1.96-1.21-1.09h0c-.65-.6-.97-1.32-.97-2.17s.32-1.57.97-2.18c.65-.6 1.43-.9 2.35-.9s1.7.3 2.35.9.97 1.33.97 2.18v.44zm3.35 7.91l-1.9.88v-12.3h1.9v11.43zm3.35-6.51v6.51l-1.9.88v-12.3h2.16l2.58 7.39v-6.51l1.9-.88v12.3h-2.16l-2.58-7.39zm12.85-1.4l-1.9.88v-1.32c0-.36-.14-.67-.42-.93a1.42 1.42 0 0 0-1.01-.39 1.42 1.42 0 0 0-1.01.39c-.28.26-.42.57-.42.93v6.15c0 .36.14.67.42.93a1.42 1.42 0 0 0 1.01.39 1.42 1.42 0 0 0 1.01-.39c.28-.26.42-.57.42-.93v-1.32l1.9.88v.44c0 .85-.32 1.58-.97 2.18s-1.43.9-2.35.9-1.7-.3-2.35-.9-.97-1.33-.97-2.18v-6.15c0-.85.32-1.57.97-2.18.65-.6 1.43-.9 2.35-.9s1.7.3 2.35.9.97 1.33.97 2.18v.44zm3.35 7.03h3.8l-.95 1.76h-4.75v-12.3h5.7v1.76h-3.8v3.52h3.8l-.95 1.76h-2.85v3.52zm11.45-6.15l-1.9-.88v-.44c0-.85.32-1.57.97-2.18.65-.6 1.43-.9 2.35-.9s1.7.3 2.35.9.97 1.33.97 2.18-.32 1.57-.97 2.17h0l-1.21 1.09-2.16 1.96c-.28.26-.42.57-.42.93v1.32h2.85v-2.64l1.9.88v3.52h-6.64v-3.08c0-.85.33-1.58.98-2.18l.11-.1 1.07-.98 2.16-1.96c.28-.26.42-.57.42-.93s-.14-.67-.42-.93a1.42 1.42 0 0 0-1.01-.39 1.42 1.42 0 0 0-1.01.39c-.28.26-.42.57-.42.93v1.32zm12.85 4.84c0 .85-.32 1.58-.97 2.18s-1.43.9-2.35.9-1.7-.3-2.35-.9-.97-1.33-.97-2.18v-6.15c0-.85.32-1.57.97-2.18.65-.6 1.43-.9 2.35-.9s1.7.3 2.35.9.97 1.33.97 2.18v6.15zm-4.75 0c0 .36.14.67.42.93a1.42 1.42 0 0 0 1.01.39 1.42 1.42 0 0 0 1.01-.39c.28-.26.42-.57.42-.93v-6.15c0-.36-.14-.67-.42-.93a1.42 1.42 0 0 0-1.01-.39 1.42 1.42 0 0 0-1.01.39c-.28.26-.42.57-.42.93v6.15zm10 2.19l-1.9.88v-10.55h-1.9v-1.76h3.8v11.43zm8.1-2.19c0 .85-.32 1.58-.97 2.18s-1.43.9-2.35.9-1.7-.3-2.35-.9-.97-1.33-.97-2.18h1.9c0 .36.14.67.42.93a1.42 1.42 0 0 0 1.01.39 1.42 1.42 0 0 0 1.01-.39c.28-.26.42-.57.42-.93v-1.76c0-.36-.14-.67-.42-.93a1.42 1.42 0 0 0-1.01-.39 1.42 1.42 0 0 0-1.01.39c-.28.26-.42.57-.42.93h-1.9v-7.47h5.7l.95 1.76h-4.75v2.93a3.5 3.5 0 0 1 1.42-.29c.92 0 1.7.3 2.35.9s.97 1.33.97 2.18v1.76z" fill="#009aa2"/><g class="F"><path d="M82.15 106.26l7.49 16.25 6.78-1.5 13.73-10.29-20.97-6.01-7.03 1.55zm51.86 72.65h4.18-17.04l-2.78-25.37-11.83-3.93-1.83-28.65 21.58-16.25 7.72 74.2z"/><path d="M110.73 93.5l-10.95 4.56-5.7 5.7 16.65 7.3V93.5zm3.43-.45v27.63l8.62-31.54-8.62 3.91z"/></g><path d="M119.11 114.53l11.45-12.24h0 0L142 114.53l-8.29-27.59-3.14-1.87h-.01-.02l-3.14 1.87-8.29 27.59z" class="H"/><g class="F"><path d="M179.2 107.19l-7.49 16.24-6.78-1.5-13.73-10.29 20.97-6.01 7.03 1.56zm-52.1 71.72h-4.18 17.04l2.78-25.37 11.83-3.93 1.83-28.65-21.58-16.25-7.72 74.2zm23.28-85.41l10.95 4.56 5.7 5.7-16.65 7.3V93.5z"/><path d="M146.95 93.05v27.63l-8.61-31.54 8.61 3.91zM142 114.53l-11.44-12.24h0 0l-11.45 12.24 8.29-27.59 3.14-1.87h.02.01l3.14 1.87 8.29 27.59zm-20.85 64.38l9.41 4.02 9.4-4.02h-18.81z"/></g><path d="M122.25 105.72c.28-1.22.82-2.09-.95-2.67-.98-.32-2.04-.09-2.93.36a39.89 39.89 0 0 1-4.17-.82c-2.34-.59-4.59-1.4-6.76-2.36l11.49 14.8c3.75-2.77 7.18-5.54 6.42-5.72-1.36-.34-3.49-1.93-3.1-3.59zm-53.09-5.64c-2.86.06-5.75-.3-8.52-.91-3.84-.86-7.82-2.14-11.44-4.03l3.05 3.11 9.43 3.77-10.75 5.79-16.78-6.71c1.2.73 2.43 1.43 3.68 2.07 11.98 6.14 25.7 7.72 38.86 5.18 1.84-.35 3.64-.86 5.45-1.33l-4.26-4.15-8.73-2.79z" class="G"/><path d="M25.78 84.52c-7.54-14.72-6.89-32.49-4.74-38.79 2.94 5.73 4.56 12.31 6.94 18.3l.73 1.83 5.92-2.02L51 18.37l6.22-2.22 20.2 8.07 7.49-.37 2.9-8.48L78.52 0l-29 5.22L3.65 55.63c5.25 9.35 12.29 19.49 22.13 28.89z" class="F"/><path d="M3.56 68.69l.55.41-.99-1.53.44 1.12z" class="H"/><path d="M40.43 88.08c2.32 2.99 5.39 5.29 8.77 7.06L36.37 82.07c1.24 2.09 2.57 4.1 4.05 6.01zm-25.4-4.11l-4.74-6.12-1.64-.63 17.46 20.66 8.04 3.21c-7.36-4.46-13.74-10.42-19.12-17.12z" class="F"/><path d="M61.68 102.01l-9.43-3.77-3.05-3.11c-3.39-1.77-6.46-4.07-8.77-7.06-1.48-1.91-2.82-3.92-4.05-6.01L22.55 67.97l6.17-2.11-.73-1.83c-2.37-5.99-4-12.57-6.94-18.3-2.16 6.3-2.8 24.07 4.74 38.79-9.84-9.4-16.88-19.54-22.13-28.89L.01 59.64l3.12 7.92.99 1.53 17.7 13.16-11.52-4.41c1.55 2.07 3.13 4.11 4.74 6.12 5.38 6.7 11.76 12.67 19.12 17.12l16.78 6.71L61.69 102z" class="G"/><path d="M53.49 95.07l15.67 5c1.9-.04 3.79-.27 5.63-.76l1.36-.4L63.87 71l-18.99-6.08-15.09 3.57 1.89 4.4 21.81 22.17z" class="F"/><path d="M69.16 100.08l8.73 2.79-1.74-3.95-1.36.4c-1.84.49-3.73.72-5.63.76z" class="G"/><path d="M31.68 72.9l-1.89-4.4-1.98.47 3.87 3.93zm75.76 27.34l-4.13-5.32-6.25-17.59-17.61-7.04-.86.04 1.1 2.18c6.18 11.57 15.62 22.35 27.75 27.73zm-20-3.83c-4.23-1.36-11.76-17.96-12.1-25.93l-11.46.53 12.28 27.91c3.7-1.17 7.28-2.91 11.28-2.51zm24.32 20.57c-1.12-.02-3.24.18-3.84-1.01-.69-1.34.39-2.86-1.07-4.03-.97-.78-2.07-1.43-3.16-2.03-3.72-2.04-7.85-3.58-12.08-4.04-3.26-.36-6.36.34-9.46 1.15l9.94 9.7 17 6.8 6.2 1.95 3.95-10.02-.31-.4c-1.74 1.28-3.54 2.57-5.04 3.59-.52-.89-1.02-1.63-2.14-1.65z" class="F"/><path d="M79.69 72.51l-1.1-2.18-3.25.15c.34 7.98 7.87 24.57 12.1 25.93-4-.4-7.58 1.34-11.28 2.51l1.74 3.95 4.26 4.15c3.1-.81 6.2-1.51 9.46-1.15 4.23.46 8.36 2 12.08 4.04 1.09.6 2.19 1.25 3.16 2.03 1.46 1.17.38 2.68 1.07 4.03.6 1.2 2.72 1 3.84 1.01 1.11.02 1.62.76 2.14 1.65l5.04-3.59-11.49-14.8c-12.13-5.38-21.57-16.16-27.75-27.73zm59.41 33.21c-.28-1.22-.82-2.09.95-2.67.98-.32 2.04-.09 2.93.36a39.89 39.89 0 0 0 4.17-.82c2.34-.59 4.59-1.4 6.76-2.36l-11.49 14.8c-3.75-2.77-7.18-5.54-6.42-5.72 1.36-.34 3.49-1.93 3.1-3.59zm53.09-5.64c2.86.06 5.75-.3 8.52-.91 3.84-.86 7.82-2.14 11.44-4.03l-3.05 3.11-9.43 3.77 10.75 5.79 16.78-6.71c-1.2.73-2.43 1.43-3.68 2.07-11.98 6.14-25.7 7.72-38.86 5.18-1.84-.35-3.64-.86-5.45-1.33l4.26-4.15 8.73-2.79z" class="G"/><path d="M235.57 84.52c7.54-14.72 6.89-32.49 4.74-38.79-2.94 5.73-4.56 12.31-6.94 18.3l-.73 1.83-5.92-2.02-16.37-45.47-6.22-2.22-20.2 8.07-7.49-.37-2.9-8.48 9.3-15.38 29 5.22 45.86 50.41c-5.25 9.35-12.29 19.49-22.13 28.89z" class="F"/><path d="M257.79 68.69l-.55.41.99-1.53-.44 1.12z" class="H"/><path d="M220.92 88.08c-2.32 2.99-5.39 5.29-8.77 7.06l12.83-13.07c-1.24 2.09-2.57 4.1-4.05 6.01zm25.39-4.11l4.74-6.12 1.64-.63-17.46 20.66-8.04 3.21c7.36-4.46 13.74-10.42 19.12-17.12z" class="F"/><path d="M199.67 102.01l9.43-3.77 3.05-3.11c3.39-1.77 6.46-4.07 8.77-7.06 1.48-1.91 2.82-3.92 4.05-6.01l13.83-14.09-6.17-2.11.73-1.83c2.37-5.99 4-12.57 6.94-18.3 2.16 6.3 2.8 24.07-4.74 38.79 9.84-9.4 16.88-19.54 22.13-28.89l3.65 4.01-3.12 7.92-.99 1.53-17.7 13.16 11.52-4.41c-1.55 2.07-3.13 4.11-4.74 6.12-5.38 6.7-11.76 12.67-19.12 17.12l-16.78 6.71-10.75-5.79z" class="G"/><path d="M207.86 95.07l-15.67 5c-1.9-.04-3.79-.27-5.63-.76l-1.36-.4L197.48 71l18.99-6.08 15.09 3.57-1.89 4.4-21.81 22.17z" class="F"/><path d="M192.19 100.08l-8.73 2.79 1.74-3.95 1.36.4c1.84.49 3.73.72 5.63.76z" class="G"/><path d="M229.67 72.9l1.89-4.4 1.98.47-3.87 3.93zm-75.76 27.34l4.13-5.32 6.25-17.59 17.61-7.04.86.04-1.1 2.18c-6.18 11.57-15.62 22.35-27.75 27.73zm20-3.83c4.23-1.36 11.76-17.96 12.1-25.93l11.46.53-12.28 27.91c-3.7-1.17-7.28-2.91-11.28-2.51zm-24.33 20.57c1.12-.02 3.24.18 3.84-1.01.69-1.34-.39-2.86 1.07-4.03.97-.78 2.07-1.43 3.16-2.03 3.72-2.04 7.85-3.58 12.08-4.04 3.26-.36 6.36.34 9.46 1.15l-9.94 9.7-17 6.8-6.2 1.95-3.95-10.02.31-.4c1.74 1.28 3.54 2.57 5.04 3.59.52-.89 1.02-1.63 2.14-1.65z" class="F"/><path d="M181.66 72.51l1.1-2.18 3.25.15c-.34 7.98-7.87 24.57-12.1 25.93 4-.4 7.58 1.34 11.28 2.51l-1.74 3.95-4.26 4.15c-3.1-.81-6.2-1.51-9.46-1.15-4.23.46-8.36 2-12.08 4.04-1.09.6-2.19 1.25-3.16 2.03-1.46 1.17-.38 2.68-1.07 4.03-.6 1.2-2.72 1-3.84 1.01-1.11.02-1.62.76-2.14 1.65l-5.04-3.59 11.49-14.8c12.13-5.38 21.57-16.16 27.75-27.73z" class="G"/><path d="M60.06 62.51l61-43 31.5 21.5 9-3 39.5 27h-42.5l6-7.5-12 2 11-6.5-7.5-2 6.5-8.75-43.5 22.75h-8.5l7.5-9.5-20.5 3.5 15-11-3-5.75 5-6.25 3.5-9-58 35.5z" fill="#009aa2"/></svg>