<svg xmlns="http://www.w3.org/2000/svg" width="349" height="245" fill="none" xmlns:v="https://vecta.io/nano"><g clip-path="url(#A)" fill="#fff"><path fill-rule="evenodd" d="M242.865 93.909l20.761.959 25.323-8.109 20.127 4.764-2.523 5.872 2.524-5.871 2.636.624-5.16 5.247-29.076 29.561-20.901 6.672c-2.27-.05-4.53-.299-6.738-.818 2.208.52 4.469.769 6.739.819 3.816.086 7.666-.402 11.358-1.217 5.121-1.14 10.43-2.854 15.25-5.371l.003-.002 1.817-1.851 15.287-15.569c-1.617 2.723-3.359 5.36-5.285 7.856 1.926-2.494 3.668-5.132 5.285-7.855l18.443-18.783-8.228-2.813.928-2.319-.93 2.319-7.898-2.699-21.826-60.631-8.294-2.963-26.932 10.763-9.994-.491-3.864-11.309L244.101.193l38.674 6.964 66.02 72.563-4.159 10.564-.588 1.497-.736.548 1.324-2.045-1.324 2.044-23.603 17.549 17.546-6.712-23.287 27.543-10.719 4.284c9.814-5.945 18.326-13.9 25.5-22.833l.039-.051-.04.051c-7.173 8.933-15.685 16.886-25.5 22.832l-22.369 8.939 22.37-8.939c-1.605.972-3.236 1.904-4.91 2.764-15.972 8.189-34.266 10.296-51.808 6.902-1.994-.384-3.959-.902-5.92-1.42l-1.35-.354 5.549-5.412-5.74 5.596.19.042-9.98 21.663-9.04-1.999-4.054-3.039-7.403 2.959-2.362 36.982-15.776 5.24-3.706 33.825-12.535 5.36-12.536-5.36-3.707-33.825-15.776-5.24-2.37-37.112-8.151-3.258-2.98 2.234-9.039 1.998-9.136-19.829-.846-.825-1.362.357-.001.001c-1.957.516-3.917 1.033-5.905 1.416-17.543 3.394-35.836 1.287-51.808-6.902-1.669-.864-3.307-1.786-4.911-2.764-5.872-3.557-11.277-7.833-16.208-12.606 4.931 4.774 10.336 9.05 16.208 12.607l-10.719-4.284-23.287-27.543 17.543 6.712L5.812 92.328l-1.32-2.036 1.32 2.038-.736-.548L.329 79.72l66.02-72.563L105.023.193l12.404 20.501-3.866 11.309-9.992.491-26.932-10.763-8.295 2.963-21.825 60.631-7.899 2.699-.979-2.441c-1.18-2.975-2.22-6.06-3.264-9.155-1.709-5.066-3.427-10.159-5.779-14.843 2.352 4.686 4.071 9.781 5.78 14.848 1.043 3.093 2.084 6.176 3.262 9.15l.979 2.441-8.228 2.813 18.443 18.783c1.613 2.716 3.35 5.347 5.27 7.835-1.919-2.489-3.657-5.12-5.27-7.836l17.105 17.42c-3.739-1.953-7.185-4.389-10.014-7.428 2.828 3.039 6.274 5.475 10.013 7.428l.001.001c4.821 2.517 10.131 4.232 15.253 5.372 3.691.815 7.54 1.303 11.356 1.217 2.503-.055 4.994-.352 7.415-.987-2.421.634-4.911.931-7.415.986l-20.9-6.672-29.076-29.561-5.16-5.247 2.636-.624 2.524 5.871-2.524-5.872 20.127-4.764 25.324 8.109 19.618-.905 1.468 2.911c6.908 12.937 16.875 25.134 29.454 32.961l.002-.001c-12.58-7.827-22.548-20.024-29.456-32.961l-1.468-2.909 1.142-.053 23.479 9.383 8.339 23.453 1.314 1.692 8.579-3.574v10.724a52.1 52.1 0 0 0 4.58 1.387v-12.719l11.483-5.203-5.103 18.686c1.005-.364 2.103-.487 3.133-.146.744.245 1.182.528 1.423.851l6.707-22.328 4.193-2.492h.039.001l4.192 2.492 6.827 22.727c.141-.495.585-.909 1.62-1.25.912-.302 1.877-.24 2.784.031l-5.071-18.571 11.483 5.203v12.798l.269-.066c1.464-.368 2.901-.801 4.312-1.29v-10.834l8.817 3.674 1.392-1.792 8.339-23.453 23.477-9.383zm-98.979 58.622c.018-.702.037-1.396-.254-2.045.29.648.271 1.342.253 2.044-.021.759-.041 1.528.329 2.259-.369-.731-.349-1.499-.328-2.258zm35.942-10.153l-5.425 52.12-5.424-52.118 5.425-5.804 5.424 5.802zm134.921-65.953l-.196.58 7.801 6.708c.809-9.809-.137-18.206-1.619-22.537l-.001.002-.001-.002c-2.15 4.195-3.773 8.733-5.322 13.293l-.662 1.956z"/><path d="M161.737 26.208L80.404 83.541l77.333-47.333-4.666 12-6.667 8.333 4 7.667-20 14.667 27.333-4.667-10 12.667h11.334l58-30.333-8.667 11.667 10 2.667-14.667 8.667 16-2.667-8 10h56.667l-52.667-36-12 4-42-28.667z"/></g><defs><clipPath id="A"><path fill="#fff" d="M0 0h349v245H0z"/></clipPath></defs></svg>