<svg width="524" height="635" viewBox="0 0 524 635" fill="none" xmlns="http://www.w3.org/2000/svg">
<path fill-rule="evenodd" clip-rule="evenodd" d="M369.969 297L262.5 36L155.031 297H369.969ZM370.793 299H154.207L106.443 415H418.557L370.793 299ZM419.38 417H105.62L61.1497 525H463.85L419.38 417ZM464.674 527H60.3262L21.312 621.75H503.688L464.674 527Z" fill="#0097A0"/>
<path d="M209.541 141.802L262.5 19" stroke="#0097A0" stroke-width="2" stroke-linecap="round"/>
<path d="M209.541 123.802L262.5 1.5" stroke="#0097A0" stroke-width="2" stroke-linecap="round"/>
<path d="M314.54 142.195L262.5 19" stroke="#0097A0" stroke-width="2" stroke-linecap="round"/>
<path d="M314.54 124.195L262.5 1.5" stroke="#0097A0" stroke-width="2" stroke-linecap="round"/>
<path d="M46.4609 544.194L11.5 627.5" stroke="#0097A0" stroke-width="2" stroke-linecap="round"/>
<path d="M101 627.5H11.5" stroke="#0097A0" stroke-width="2" stroke-linecap="round"/>
<path d="M36.4604 550.194L1.49951 633.5" stroke="#0097A0" stroke-width="2" stroke-linecap="round"/>
<path d="M90.9995 633.5H1.49951" stroke="#0097A0" stroke-width="2" stroke-linecap="round"/>
<path d="M477.539 543L512.5 626.306" stroke="#0097A0" stroke-width="2" stroke-linecap="round"/>
<path d="M423 626.306H512.5" stroke="#0097A0" stroke-width="2" stroke-linecap="round"/>
<path d="M487.54 549L522.5 632.306" stroke="#0097A0" stroke-width="2" stroke-linecap="round"/>
<path d="M433 632.306H522.5" stroke="#0097A0" stroke-width="2" stroke-linecap="round"/>
<path d="M253.741 177.472L248.737 199H244.453L240.997 184.564L237.505 199H233.185L228.253 177.472H232.141L235.381 192.592L238.945 177.472H242.977L246.541 192.592L249.745 177.472H253.741ZM273.011 193.888C273.011 194.68 272.819 195.364 272.435 195.94C272.147 196.324 271.715 196.804 271.139 197.38C270.587 197.956 270.143 198.34 269.807 198.532C269.111 198.964 268.367 199.18 267.575 199.18H262.103C261.311 199.18 260.567 198.964 259.871 198.532C259.535 198.34 259.067 197.956 258.467 197.38C257.891 196.78 257.483 196.3 257.243 195.94C256.859 195.364 256.667 194.68 256.667 193.888V182.62C256.667 181.828 256.859 181.144 257.243 180.568C257.483 180.208 257.891 179.74 258.467 179.164C259.067 178.564 259.535 178.168 259.871 177.976C260.567 177.544 261.311 177.328 262.103 177.328H267.575C268.367 177.328 269.111 177.544 269.807 177.976C270.143 178.168 270.587 178.552 271.139 179.128C271.715 179.704 272.147 180.184 272.435 180.568C272.819 181.144 273.011 181.828 273.011 182.62V193.888ZM260.447 182.728V193.852C260.447 193.924 260.459 193.972 260.483 193.996C260.963 194.716 261.491 195.232 262.067 195.544C262.115 195.568 262.175 195.58 262.247 195.58H267.431C267.503 195.58 267.563 195.568 267.611 195.544C268.187 195.232 268.715 194.716 269.195 193.996L269.231 193.852V182.728C269.231 182.632 269.219 182.572 269.195 182.548C268.691 181.804 268.163 181.276 267.611 180.964C267.563 180.94 267.503 180.928 267.431 180.928H262.247C262.151 180.928 262.091 180.94 262.067 180.964C261.515 181.276 260.987 181.804 260.483 182.548L260.447 182.728ZM293.058 193.78C293.058 194.62 292.878 195.304 292.518 195.832C292.278 196.168 291.87 196.624 291.294 197.2C290.718 197.752 290.238 198.136 289.854 198.352C289.086 198.784 288.366 199 287.694 199H277.83V177.472H287.694C288.534 177.472 289.266 177.676 289.89 178.084C290.25 178.3 290.706 178.696 291.258 179.272C291.81 179.848 292.218 180.328 292.482 180.712C292.866 181.24 293.058 181.924 293.058 182.764V193.78ZM281.61 195.4H287.442C287.586 195.4 287.67 195.388 287.694 195.364C287.982 195.196 288.318 194.932 288.702 194.572C289.086 194.188 289.278 193.9 289.278 193.708V182.872C289.278 182.8 289.266 182.74 289.242 182.692C288.786 181.948 288.258 181.42 287.658 181.108C287.634 181.084 287.526 181.072 287.334 181.072H281.61V195.4ZM264.002 224.544C264.17 224.544 264.41 224.4 264.722 224.112C265.034 223.824 265.274 223.536 265.442 223.248C265.466 223.2 265.478 223.116 265.478 222.996V217.704H270.158V221.376H269.15V223.284C269.15 224.124 268.934 224.844 268.502 225.444C268.334 225.684 268.034 226.02 267.602 226.452C267.17 226.884 266.834 227.184 266.594 227.352C265.874 227.88 265.01 228.144 264.002 228.144H261.986V228.18H259.106C258.17 228.18 257.33 227.916 256.586 227.388C256.346 227.22 255.998 226.908 255.542 226.452C255.11 225.996 254.81 225.648 254.642 225.408C254.21 224.76 253.994 224.028 253.994 223.212V220.404C253.994 219.324 254.474 218.304 255.434 217.344C254.474 216.384 253.994 215.352 253.994 214.248V211.332C253.994 210.516 254.21 209.784 254.642 209.136C254.81 208.896 255.11 208.548 255.542 208.092C255.998 207.636 256.346 207.324 256.586 207.156C257.33 206.628 258.17 206.364 259.106 206.364H262.634C264.194 206.364 265.73 207.348 267.242 209.316C267.698 209.94 267.998 210.456 268.142 210.864L264.47 211.836C263.822 210.876 263.234 210.264 262.706 210C262.658 209.976 262.598 209.964 262.526 209.964H259.142C258.998 209.964 258.782 210.096 258.494 210.36C258.206 210.624 257.978 210.9 257.81 211.188C257.786 211.236 257.774 211.296 257.774 211.368V214.176C257.774 214.248 257.786 214.308 257.81 214.356C257.954 214.62 258.158 214.884 258.422 215.148C258.71 215.412 258.938 215.544 259.106 215.544H263.714V219.108H259.106C258.938 219.108 258.71 219.24 258.422 219.504C258.158 219.768 257.954 220.032 257.81 220.296L257.774 220.476V223.176L257.81 223.356C257.978 223.644 258.194 223.92 258.458 224.184C258.746 224.424 258.974 224.544 259.142 224.544H264.002ZM219.668 251.888C219.668 252.728 219.476 253.412 219.092 253.94C218.852 254.3 218.444 254.78 217.868 255.38C217.292 255.956 216.824 256.34 216.464 256.532C215.696 256.964 214.952 257.18 214.232 257.18H207.968C206.408 257.18 204.884 256.184 203.396 254.192C203.252 254 203.036 253.628 202.748 253.076L206.312 251.888C206.792 252.56 207.32 253.112 207.896 253.544C207.944 253.568 208.028 253.58 208.148 253.58H214.052L214.268 253.544C214.532 253.4 214.868 253.124 215.276 252.716C215.684 252.308 215.888 252.032 215.888 251.888V249.764C215.888 249.404 215.744 249.2 215.456 249.152L206.096 246.488C205.208 246.248 204.512 245.756 204.008 245.012C203.528 244.268 203.288 243.452 203.288 242.564V240.62C203.288 239.78 203.468 239.096 203.828 238.568C204.068 238.232 204.476 237.776 205.052 237.2C205.652 236.6 206.132 236.192 206.492 235.976C207.26 235.544 208.004 235.328 208.724 235.328H214.052C215.588 235.328 217.112 236.324 218.624 238.316C218.864 238.652 219.104 239.072 219.344 239.576L215.708 240.62C215.156 239.828 214.628 239.276 214.124 238.964C214.1 238.94 214.028 238.928 213.908 238.928H208.832L208.616 238.964C208.328 239.108 207.992 239.372 207.608 239.756C207.248 240.14 207.068 240.404 207.068 240.548V242.348C207.068 242.708 207.2 242.912 207.464 242.96L216.86 245.696C217.724 245.936 218.408 246.44 218.912 247.208C219.416 247.952 219.668 248.756 219.668 249.62V251.888ZM239.586 243.608C239.586 244.424 239.37 245.156 238.938 245.804C238.77 246.044 238.47 246.38 238.038 246.812C237.606 247.22 237.258 247.52 236.994 247.712C236.25 248.24 235.398 248.504 234.438 248.504H228.102V257H224.322V235.472H234.438C235.398 235.472 236.25 235.736 236.994 236.264C237.234 236.432 237.57 236.744 238.002 237.2C238.458 237.656 238.77 238.004 238.938 238.244C239.37 238.892 239.586 239.624 239.586 240.44V243.608ZM235.806 243.572V240.476C235.806 240.356 235.794 240.272 235.77 240.224C235.362 239.504 234.978 239.12 234.618 239.072H234.438H228.102V244.904H234.438C234.606 244.904 234.834 244.772 235.122 244.508C235.41 244.244 235.626 243.98 235.77 243.716C235.794 243.668 235.806 243.62 235.806 243.572ZM260.038 251.888C260.038 252.68 259.846 253.364 259.462 253.94C259.174 254.324 258.742 254.804 258.166 255.38C257.614 255.956 257.17 256.34 256.834 256.532C256.138 256.964 255.394 257.18 254.602 257.18H249.13C248.338 257.18 247.594 256.964 246.898 256.532C246.562 256.34 246.094 255.956 245.494 255.38C244.918 254.78 244.51 254.3 244.27 253.94C243.886 253.364 243.694 252.68 243.694 251.888V240.62C243.694 239.828 243.886 239.144 244.27 238.568C244.51 238.208 244.918 237.74 245.494 237.164C246.094 236.564 246.562 236.168 246.898 235.976C247.594 235.544 248.338 235.328 249.13 235.328H254.602C255.394 235.328 256.138 235.544 256.834 235.976C257.17 236.168 257.614 236.552 258.166 237.128C258.742 237.704 259.174 238.184 259.462 238.568C259.846 239.144 260.038 239.828 260.038 240.62V251.888ZM247.474 240.728V251.852C247.474 251.924 247.486 251.972 247.51 251.996C247.99 252.716 248.518 253.232 249.094 253.544C249.142 253.568 249.202 253.58 249.274 253.58H254.458C254.53 253.58 254.59 253.568 254.638 253.544C255.214 253.232 255.742 252.716 256.222 251.996L256.258 251.852V240.728C256.258 240.632 256.246 240.572 256.222 240.548C255.718 239.804 255.19 239.276 254.638 238.964C254.59 238.94 254.53 238.928 254.458 238.928H249.274C249.178 238.928 249.118 238.94 249.094 238.964C248.542 239.276 248.014 239.804 247.51 240.548L247.474 240.728ZM280.121 243.608C280.121 244.424 279.905 245.156 279.473 245.804C279.305 246.044 279.005 246.38 278.573 246.812C278.141 247.22 277.793 247.52 277.529 247.712C277.217 247.952 276.905 248.12 276.593 248.216L280.877 257H276.773L272.777 248.504H268.637V257H264.857V235.472H274.973C275.933 235.472 276.785 235.736 277.529 236.264C277.769 236.432 278.105 236.744 278.537 237.2C278.993 237.656 279.305 238.004 279.473 238.244C279.905 238.892 280.121 239.624 280.121 240.44V243.608ZM276.341 243.572V240.476C276.341 240.356 276.329 240.272 276.305 240.224C275.897 239.504 275.513 239.12 275.153 239.072H268.637V244.904H274.973C275.141 244.904 275.369 244.772 275.657 244.508C275.945 244.244 276.161 243.98 276.305 243.716C276.329 243.668 276.341 243.62 276.341 243.572ZM299.997 239.072H294.165V257H290.385V239.072H284.553V235.472H299.997V239.072ZM319.758 251.888C319.758 252.728 319.566 253.412 319.182 253.94C318.942 254.3 318.534 254.78 317.958 255.38C317.382 255.956 316.914 256.34 316.554 256.532C315.786 256.964 315.042 257.18 314.322 257.18H308.058C306.498 257.18 304.974 256.184 303.486 254.192C303.342 254 303.126 253.628 302.838 253.076L306.402 251.888C306.882 252.56 307.41 253.112 307.986 253.544C308.034 253.568 308.118 253.58 308.238 253.58H314.142L314.358 253.544C314.622 253.4 314.958 253.124 315.366 252.716C315.774 252.308 315.978 252.032 315.978 251.888V249.764C315.978 249.404 315.834 249.2 315.546 249.152L306.186 246.488C305.298 246.248 304.602 245.756 304.098 245.012C303.618 244.268 303.378 243.452 303.378 242.564V240.62C303.378 239.78 303.558 239.096 303.918 238.568C304.158 238.232 304.566 237.776 305.142 237.2C305.742 236.6 306.222 236.192 306.582 235.976C307.35 235.544 308.094 235.328 308.814 235.328H314.142C315.678 235.328 317.202 236.324 318.714 238.316C318.954 238.652 319.194 239.072 319.434 239.576L315.798 240.62C315.246 239.828 314.718 239.276 314.214 238.964C314.19 238.94 314.118 238.928 313.998 238.928H308.922L308.706 238.964C308.418 239.108 308.082 239.372 307.698 239.756C307.338 240.14 307.158 240.404 307.158 240.548V242.348C307.158 242.708 307.29 242.912 307.554 242.96L316.95 245.696C317.814 245.936 318.498 246.44 319.002 247.208C319.506 247.952 319.758 248.756 319.758 249.62V251.888Z" fill="white"/>
<path d="M196.717 348.472L191.713 370H187.429L183.973 355.564L180.481 370H176.161L171.229 348.472H175.117L178.357 363.592L181.921 348.472H185.953L189.517 363.592L192.721 348.472H196.717ZM209.615 370H205.835V352.108H201.551V348.472H209.615V370ZM232.927 364.888C232.927 365.68 232.735 366.364 232.351 366.94C232.087 367.3 231.667 367.78 231.091 368.38C230.539 368.956 230.083 369.34 229.723 369.532C229.027 369.964 228.295 370.18 227.527 370.18H223.531C222.739 370.18 221.995 369.964 221.299 369.532C220.963 369.34 220.495 368.956 219.895 368.38C219.319 367.78 218.911 367.3 218.671 366.94C218.287 366.364 218.095 365.68 218.095 364.888V353.62C218.095 352.828 218.287 352.144 218.671 351.568C218.911 351.208 219.319 350.74 219.895 350.164C220.495 349.564 220.963 349.168 221.299 348.976C221.995 348.544 222.739 348.328 223.531 348.328H227.527C228.295 348.328 229.027 348.544 229.723 348.976C230.083 349.168 230.539 349.564 231.091 350.164C231.667 350.74 232.087 351.208 232.351 351.568C232.735 352.144 232.927 352.828 232.927 353.62V364.888ZM221.875 353.692V364.852C221.875 364.924 221.887 364.972 221.911 364.996C222.415 365.74 222.943 366.256 223.495 366.544C223.543 366.568 223.603 366.58 223.675 366.58H227.383C227.455 366.58 227.515 366.568 227.563 366.544C228.115 366.256 228.631 365.74 229.111 364.996L229.147 364.852V353.692C229.147 353.596 229.135 353.536 229.111 353.512C228.631 352.768 228.115 352.252 227.563 351.964C227.515 351.94 227.455 351.928 227.383 351.928H223.675C223.579 351.928 223.519 351.94 223.495 351.964C222.943 352.228 222.415 352.744 221.911 353.512L221.875 353.692ZM246.951 370H243.171V352.108H238.887V348.472H246.951V370ZM269.075 348.472L257.375 370H253.235L264.971 348.472H269.075ZM287.917 364.888C287.917 365.68 287.725 366.364 287.341 366.94C287.053 367.324 286.621 367.804 286.045 368.38C285.493 368.956 285.049 369.34 284.713 369.532C284.017 369.964 283.273 370.18 282.481 370.18H277.009C276.217 370.18 275.473 369.964 274.777 369.532C274.441 369.34 273.973 368.956 273.373 368.38C272.797 367.78 272.389 367.3 272.149 366.94C271.765 366.364 271.573 365.68 271.573 364.888V353.62C271.573 352.828 271.765 352.144 272.149 351.568C272.389 351.208 272.797 350.74 273.373 350.164C273.973 349.564 274.441 349.168 274.777 348.976C275.473 348.544 276.217 348.328 277.009 348.328H282.481C283.273 348.328 284.017 348.544 284.713 348.976C285.049 349.168 285.493 349.552 286.045 350.128C286.621 350.704 287.053 351.184 287.341 351.568C287.725 352.144 287.917 352.828 287.917 353.62V364.888ZM275.353 353.728V364.852C275.353 364.924 275.365 364.972 275.389 364.996C275.869 365.716 276.397 366.232 276.973 366.544C277.021 366.568 277.081 366.58 277.153 366.58H282.337C282.409 366.58 282.469 366.568 282.517 366.544C283.093 366.232 283.621 365.716 284.101 364.996L284.137 364.852V353.728C284.137 353.632 284.125 353.572 284.101 353.548C283.597 352.804 283.069 352.276 282.517 351.964C282.469 351.94 282.409 351.928 282.337 351.928H277.153C277.057 351.928 276.997 351.94 276.973 351.964C276.421 352.276 275.893 352.804 275.389 353.548L275.353 353.728ZM296.516 353.62V364.888C296.516 365.08 296.708 365.368 297.092 365.752C297.5 366.112 297.86 366.376 298.172 366.544H298.208C298.256 366.568 298.304 366.58 298.352 366.58H303.248L303.428 366.544C303.716 366.376 304.064 366.088 304.472 365.68C304.88 365.272 305.084 364.972 305.084 364.78V361.288H300.44V357.688H308.864V364.96C309.032 366.544 309.26 368.224 309.548 370H305.84L305.66 369.136C304.676 369.832 303.932 370.18 303.428 370.18H298.172C297.38 370.18 296.636 369.964 295.94 369.532C295.58 369.316 295.112 368.932 294.536 368.38C293.96 367.804 293.552 367.348 293.312 367.012C292.928 366.436 292.736 365.74 292.736 364.924V353.548C292.736 352.756 292.928 352.072 293.312 351.496C293.552 351.136 293.96 350.668 294.536 350.092C295.136 349.492 295.604 349.096 295.94 348.904C296.588 348.496 297.332 348.292 298.172 348.292H303.428C305.084 348.292 306.608 349.288 308 351.28C308.36 351.784 308.612 352.204 308.756 352.54L305.12 353.584C304.592 352.864 304.028 352.312 303.428 351.928C303.404 351.904 303.344 351.892 303.248 351.892H298.352L298.172 351.928C297.524 352.288 296.984 352.804 296.552 353.476L296.516 353.62ZM328.403 348.472L321.275 360.604V370H317.495V360.604L310.439 348.472H314.615L319.403 356.644L324.191 348.472H328.403ZM349.95 370H346.17V355.276L341.886 364.708H339.402L335.118 355.312V370H331.338V348.472H335.658L340.698 359.092L345.666 348.472H349.95V370Z" fill="white"/>
<path d="M229.178 477.888C229.178 478.728 228.986 479.412 228.602 479.94C228.362 480.3 227.954 480.78 227.378 481.38C226.802 481.956 226.334 482.34 225.974 482.532C225.206 482.964 224.462 483.18 223.742 483.18H217.478C215.918 483.18 214.394 482.184 212.906 480.192C212.762 480 212.546 479.628 212.258 479.076L215.822 477.888C216.302 478.56 216.83 479.112 217.406 479.544C217.454 479.568 217.538 479.58 217.658 479.58H223.562L223.778 479.544C224.042 479.4 224.378 479.124 224.786 478.716C225.194 478.308 225.398 478.032 225.398 477.888V475.764C225.398 475.404 225.254 475.2 224.966 475.152L215.606 472.488C214.718 472.248 214.022 471.756 213.518 471.012C213.038 470.268 212.798 469.452 212.798 468.564V466.62C212.798 465.78 212.978 465.096 213.338 464.568C213.578 464.232 213.986 463.776 214.562 463.2C215.162 462.6 215.642 462.192 216.002 461.976C216.77 461.544 217.514 461.328 218.234 461.328H223.562C225.098 461.328 226.622 462.324 228.134 464.316C228.374 464.652 228.614 465.072 228.854 465.576L225.218 466.62C224.666 465.828 224.138 465.276 223.634 464.964C223.61 464.94 223.538 464.928 223.418 464.928H218.342L218.126 464.964C217.838 465.108 217.502 465.372 217.118 465.756C216.758 466.14 216.578 466.404 216.578 466.548V468.348C216.578 468.708 216.71 468.912 216.974 468.96L226.37 471.696C227.234 471.936 227.918 472.44 228.422 473.208C228.926 473.952 229.178 474.756 229.178 475.62V477.888ZM257.52 461.472L252.516 483H248.232L244.776 468.564L241.284 483H236.964L232.032 461.472H235.92L239.16 476.592L242.724 461.472H246.756L250.32 476.592L253.524 461.472H257.52ZM273.946 483H260.41V461.472H273.946V465.072H264.19V470.508H273.262V474.108H264.19V479.4H273.946V483ZM295.929 483H291.897L290.313 478.428H282.141L280.557 483H276.525L284.049 461.472H288.441L295.929 483ZM289.125 474.828L286.245 466.332L283.329 474.828H289.125ZM311.054 465.072H305.222V483H301.442V465.072H295.61V461.472H311.054V465.072Z" fill="white"/>
<path d="M239.471 582.824C239.231 583.376 238.979 583.832 238.715 584.192C237.227 586.184 235.703 587.18 234.143 587.18H229.643C228.851 587.18 228.107 586.964 227.411 586.532C227.051 586.316 226.583 585.92 226.007 585.344C225.431 584.768 225.023 584.312 224.783 583.976C224.399 583.4 224.207 582.716 224.207 581.924V570.584C224.207 569.816 224.399 569.144 224.783 568.568C225.023 568.208 225.431 567.74 226.007 567.164C226.607 566.564 227.075 566.168 227.411 565.976C228.179 565.544 228.923 565.328 229.643 565.328H234.143C235.679 565.328 237.203 566.324 238.715 568.316C238.859 568.508 239.111 568.928 239.471 569.576L235.799 570.62C235.079 569.732 234.539 569.18 234.179 568.964C234.155 568.94 234.107 568.928 234.035 568.928H229.787L229.643 568.964C229.019 569.3 228.479 569.828 228.023 570.548C227.999 570.596 227.987 570.728 227.987 570.944V581.888C227.987 582.08 228.179 582.368 228.563 582.752C228.971 583.112 229.331 583.376 229.643 583.544C229.667 583.568 229.751 583.58 229.895 583.58H233.999C234.071 583.58 234.131 583.568 234.179 583.544C234.395 583.448 234.635 583.256 234.899 582.968C235.187 582.68 235.415 582.416 235.583 582.176L235.799 581.852L239.471 582.824ZM257.425 587H244.105V565.472H247.885V583.4H257.425V587ZM278.358 587H274.326L272.742 582.428H264.57L262.986 587H258.954L266.478 565.472H270.87L278.358 587ZM271.554 578.828L268.674 570.332L265.758 578.828H271.554ZM299.772 587H295.992V572.276L291.708 581.708H289.224L284.94 572.312V587H281.16V565.472H285.48L290.52 576.092L295.488 565.472H299.772V587Z" fill="white"/>
</svg>
